<?xml version="1.0" encoding="utf-8"?>
<!-- Generator: Adobe Illustrator 27.5.0, SVG Export Plug-In . SVG Version: 6.00 Build 0)  -->
<svg version="1.1" xmlns="http://www.w3.org/2000/svg" xmlns:xlink="http://www.w3.org/1999/xlink" x="0px" y="0px"
	 viewBox="0 0 500 500" style="enable-background:new 0 0 500 500;" xml:space="preserve">
<g id="BACKGROUND">
	<g>
		<defs>
			<rect id="SVGID_1_" width="500" height="500"/>
		</defs>
		<clipPath id="SVGID_00000106133134944322622570000014977022821656615840_">
			<use xlink:href="#SVGID_1_"  style="overflow:visible;"/>
		</clipPath>
		
			<linearGradient id="SVGID_00000046304965804751576950000007551352421619031437_" gradientUnits="userSpaceOnUse" x1="231.412" y1="159.0002" x2="231.412" y2="488.2189">
			<stop  offset="0" style="stop-color:#D3F0E1"/>
			<stop  offset="1" style="stop-color:#82CFB9"/>
		</linearGradient>
		
			<path style="clip-path:url(#SVGID_00000106133134944322622570000014977022821656615840_);fill:url(#SVGID_00000046304965804751576950000007551352421619031437_);" d="
			M85,519c0,0-64-152-19-185c35.564-26.08,79,45,79,45S56.185,163.519,100,86c52-92,275-28,297,69s-66,183-66,183s55-48,73-11
			s3,192,3,192H85z"/>
		<g style="clip-path:url(#SVGID_00000106133134944322622570000014977022821656615840_);">
			<g>
				<path style="fill:#FFFFFF;" d="M375.96,115.35c-34.58,14.32-70.96,23.19-108.47,26.41c-7.81,0.67-15.04,1.01-21.78,1.01
					c-17.06,0-31.07-2.17-43.84-6.69c-22.98-8.12-40.53-24.68-46.95-44.29c-4.63-14.19-3.53-30.01,3.02-43.41
					c0.47-0.96,0.96-1.9,1.48-2.82c0.88-0.2,1.77-0.4,2.66-0.59c-0.84,1.39-1.62,2.82-2.34,4.29c-6.33,12.94-7.39,28.21-2.92,41.9
					c6.23,19.04,23.32,35.12,45.72,43.04c17.53,6.2,37.51,7.91,64.78,5.57c37.09-3.19,73.06-11.92,107.26-26.01
					C375.04,114.28,375.5,114.81,375.96,115.35z"/>
			</g>
			<g>
				<path style="fill:#FFFFFF;" d="M226.32,519h-2.44c-25.84-35.99-63.93-75.14-115.08-93.06c-17.16-6.01-31.88-8.02-45-6.16
					c-3.1,0.44-6.11,1.11-9,2c-0.13-0.66-0.26-1.31-0.38-1.97c2.92-0.89,5.97-1.57,9.1-2.01c13.45-1.91,28.47,0.14,45.94,6.26
					C161.63,442.33,200.3,482.43,226.32,519z"/>
			</g>
			<g>
				<path style="fill:#FFFFFF;" d="M412.79,394c-15.05,17.62-23.65,40.54-23.54,63.82c0.1,20.06,6.66,39.79,18.22,56.04
					c-0.11,1.21-0.2,2.22-0.28,3.01c-12.62-16.92-19.83-37.8-19.94-59.04c-0.12-24.51,9.23-48.62,25.49-66.81
					c0.02,0.99,0.04,1.97,0.05,2.97V394z"/>
			</g>
		</g>
	</g>
</g>
<g id="OBJECTS">
	<g>
		<g>
			<path style="fill:#F49A90;" d="M183.108,407.873l6.935-33.58h114.609l8.395,30.112
				C313.048,404.405,213.403,429.043,183.108,407.873z"/>
			<path style="fill:#D6756B;" d="M185.088,398.285c23.512,4.38,74.604,10.625,124.937-4.723l-2.545-9.128l-119.14-1.894
				L185.088,398.285z"/>
			<path style="fill:#FFE100;" d="M194.606,138.392c0,0-9.307,0.88-11.224-6.303c0,0-4.654-0.612-5.201-12.11
				c-0.548-11.497-2.738-14.782,2.738-20.531c5.475-5.749,18.889-11.771,21.9-18.341s9.034-20.805,24.364-22.174
				c15.33-1.369,19.436-2.19,26.554,4.654c7.117,6.844,22.721,7.118,26.827,15.056c4.106,7.939,5.928,19.569,5.928,19.569
				s0.971,5.068-4.669,8.079L194.606,138.392z"/>
			<path style="fill:#152A5E;" d="M278.095,199.79c0,6.886-4.718,12.468-10.537,12.468c-5.819,0-10.537-5.582-10.537-12.468
				s4.718-12.468,10.537-12.468C273.377,187.322,278.095,192.904,278.095,199.79z"/>
			<path style="fill:#152A5E;" d="M209.662,175.003c0,0-7.089,3.833-5.461,16.425c1.628,12.592,7.103,22.721,18.327,20.531
				C233.752,209.77,233.204,175.825,209.662,175.003z"/>
			<path style="fill:#911C5C;" d="M324.43,223.728c-19.656-11.469-43.035-14.955-43.035-14.955
				c-12.839-4.685-58.879-6.38-66.044-3.881c0,0-23.056,6.211-40.664,18.835c0,0,0.757,40.7,3.677,48.365
				c2.92,7.665,8.03,10.949,6.935,18.25c-1.095,7.3-2.19,22.264,4.38,32.85c0,0,2.19,7.665,0.73,18.25l-10.95,48.91
				c0,0,23.931,7.549,60.225,8.5h19.749c36.293-0.951,60.225-8.5,60.225-8.5l-10.95-48.91c-1.46-10.585,0.73-18.25,0.73-18.25
				c6.57-10.585,5.475-25.549,4.38-32.85c-1.095-7.3,4.014-10.585,6.935-18.25C323.673,264.428,324.43,223.728,324.43,223.728z"/>
			<path style="fill:#871A55;" d="M324.43,223.727c-6.811-3.974-14.068-6.988-20.645-9.232c-3.466,15.033-8.859,44.612-2.362,61.33
				c8.967,23.077-8.602,43.448-8.602,43.448s20.228,61.5-28.003,79.383c33.255-1.5,54.837-8.3,54.837-8.3l0-0.002l0.003-0.001
				l-5.581-24.928l-1.375-6.145l-0.001,0l-3.993-17.837c-1.46-10.585,0.73-18.25,0.73-18.25c6.57-10.585,5.475-25.549,4.38-32.85
				c-1.095-7.3,4.014-10.585,6.935-18.25C323.673,264.428,324.43,223.727,324.43,223.727z"/>
			<path style="fill:#871A55;" d="M190.409,341.443c1.46-10.585-0.73-18.25-0.73-18.25c-6.57-10.585-5.475-25.549-4.38-32.85
				c1.095-7.3-4.014-10.585-6.935-18.25c-2.92-7.665-3.677-48.365-3.677-48.365c6.811-3.974,14.068-6.988,20.645-9.232
				c3.466,15.033,8.859,44.612,2.362,61.33c-8.967,23.077,8.602,43.448,8.602,43.448l-17.042,73.587
				c-6.311-1.41-9.795-2.507-9.795-2.507L190.409,341.443z"/>
			<path style="fill:#780A46;" d="M212.156,319.273c0.509,0.716,1.148,1.315,1.827,1.843c0.664,0.546,1.394,1.002,2.136,1.419
				c1.498,0.816,3.099,1.414,4.748,1.803c3.278,0.871,6.706,0.977,10.103,0.85c3.426-0.175,6.821-0.548,10.193-1.21
				c3.377-0.613,6.757-1.438,10.261-2.115c3.505-0.631,7.178-0.976,10.821-0.733l2.692,0.301c0.854,0.105,1.708,0.231,2.565,0.311
				c1.713,0.182,3.429,0.331,5.147,0.445c3.437,0.206,6.886,0.222,10.308-0.097c1.711-0.159,3.406-0.439,5.076-0.852
				c1.664-0.424,3.306-1.012,4.786-1.966c-1.266,1.23-2.846,2.144-4.493,2.828c-1.649,0.694-3.377,1.18-5.119,1.584
				c-3.498,0.714-7.066,1.055-10.621,1.066c-1.779,0.024-3.558-0.012-5.33-0.14l-5.191-0.374c-3.35-0.129-6.689,0.2-10.057,0.857
				c-3.378,0.587-6.805,1.412-10.332,1.943c-3.525,0.509-7.114,0.832-10.685,0.705c-3.582-0.089-7.224-0.57-10.615-1.875
				c-1.687-0.648-3.32-1.473-4.754-2.573C214.202,322.202,212.913,320.872,212.156,319.273z"/>
			<path style="fill:#780A46;" d="M227.486,271.696c0,0,24.09-11.68,52.56-1.46C280.046,270.236,254.861,264.761,227.486,271.696z"
				/>
			<g>
				<g>
					<path style="fill:#7E98C1;" d="M265.575,325.781h-23.938c-3.867,0-7.001-3.135-7.001-7.001v-42.909
						c0-3.867,3.135-7.001,7.001-7.001h23.938c3.867,0,7.001,3.135,7.001,7.001v42.909
						C272.577,322.647,269.442,325.781,265.575,325.781z"/>
					<path style="fill:#97B7E8;" d="M269.357,268.87h-31.501c-1.778,0-3.22,1.512-3.22,3.377v3.256c0-1.865,1.442-3.377,3.22-3.377
						h31.501c1.778,0,3.22,1.512,3.22,3.377v-3.256C272.577,270.381,271.135,268.87,269.357,268.87z"/>
					<path style="fill:#C4DBFF;" d="M268.515,277.378h-3.604c-0.783,0-1.417-0.635-1.417-1.417v-0.269
						c0-0.783,0.635-1.418,1.417-1.418h3.604c0.783,0,1.418,0.635,1.418,1.418v0.269
						C269.932,276.743,269.298,277.378,268.515,277.378z"/>
					<path style="fill:#687D9E;" d="M234.636,290.343l27.594-4.917l-27.594,11.842l30.027-5.365l-23.358,12.243l24.192-2.248
						l7.081,0.352v4.1v8.517v3.247c0,0-7.057-1.973-7.914-2.796l-7.128-1.035h-13.036l-9.862,3.831V290.343z"/>
				</g>
				<g>
					<path style="fill:#F49A90;" d="M272.595,278.297c0,0,8.853,6.898,13.912,8.508c5.059,1.61,7.128,5.864,9.083,9.313
						c1.955,3.449,30.813,24.489,36.676,26.674c0,0-3.475,14.564-14.167,19.508c0,0-2.306-2.842-5.688-6.405
						c-4.381-4.616-9.19-11.072-11.647-12.068c-4.254-1.725-13.567-3.679-17.936-9.543l-18.166,1.035c0,0-2.529-1.61,0-2.874
						l-7.128,1.84c0,0-2.529-0.575-2.529-2.644c0-2.069,5.227-2.963,5.227-2.963l22.827-5.43l-0.23-1.348
						c0,0-22.65,3.992-26.559,3.878c-3.909-0.115-4.714-2.299-2.415-3.104c2.3-0.805,28.054-8.968,30.123-9.773
						c0,0-10.348-5.519-11.382-7.703V278.297z"/>
					<g>
						<path style="fill:#D6756B;" d="M288.558,293.397c0.741,0.508,1.223,1.342,1.432,2.231c0.079,0.45,0.105,0.918,0.008,1.365
							c-0.077,0.45-0.272,0.867-0.52,1.233c0.072-0.441,0.168-0.854,0.168-1.275c0.02-0.415-0.001-0.83-0.106-1.23
							c-0.065-0.408-0.212-0.798-0.377-1.185C288.995,294.15,288.79,293.775,288.558,293.397z"/>
					</g>
					<g>
						<path style="fill:#D6756B;" d="M291.241,301.898c0.264,0.256,0.429,0.595,0.545,0.943c0.116,0.351,0.147,0.722,0.16,1.09
							c-0.034,0.366-0.073,0.735-0.198,1.079c-0.117,0.345-0.285,0.67-0.507,0.957c0.104-0.717,0.249-1.373,0.246-2.046
							C291.517,303.25,291.422,302.593,291.241,301.898z"/>
					</g>
					<g>
						<path style="fill:#D6756B;" d="M291.718,309.743c0.395,0.543,0.505,1.233,0.464,1.903c-0.047,0.333-0.132,0.668-0.292,0.967
							c-0.151,0.303-0.384,0.558-0.649,0.752c0.116-0.314,0.252-0.587,0.321-0.885c0.077-0.291,0.154-0.58,0.162-0.881
							C291.81,311.002,291.749,310.398,291.718,309.743z"/>
					</g>
					<g>
						<path style="fill:#D6756B;" d="M264.662,312.444c1.662-0.484,3.335-0.93,5.018-1.334c1.681-0.411,3.366-0.811,5.059-1.176
							c1.699-0.335,3.4-0.662,5.117-0.904c1.709-0.228,3.455-0.484,5.176-0.226c-0.862-0.093-1.727-0.06-2.584,0.047
							c-0.86,0.07-1.715,0.204-2.569,0.334c-1.708,0.267-3.401,0.622-5.092,0.98C271.394,310.835,268.035,311.666,264.662,312.444z"
							/>
					</g>
				</g>
				<g>
					<path style="fill:#F49A90;" d="M188.461,313.364c0,0,20.881-7.703,28.124-14.947c0,0,3.219-6.553,5.404-7.818
						c2.185-1.265,11.152-7.128,12.647-10.462v11.267c0,0,25.869-5.404,27.594-5.979c1.725-0.575,2.644,3.104,1.265,3.679
						c-1.38,0.575-27.594,8.221-27.594,8.221l0.23,0.747l26.674-5.864c0,0,2.874-1.15,3.334,0.92c0.46,2.07-2.069,3.104-3.679,4.197
						c-1.61,1.092-23.685,7.416-25.754,8.336c0,0,25.064-3.271,27.938-3.763c2.874-0.491,3.104,3.533,0.23,4.222
						c-2.874,0.69-15.521,5.864-18.051,6.323c0,0-7.473,5.979-8.278,6.209c-0.805,0.23-3.219,1.035-7.703,1.035
						c-4.484,0-12.302-0.115-13.107,0.69c-0.805,0.805-26.444,18.971-26.444,18.971l-2.631-24.591L188.461,313.364z"/>
					<g>
						<path style="fill:#D6756B;" d="M246.823,312.444c-1.804,0.488-3.636,0.854-5.473,1.19c-1.842,0.304-3.695,0.586-5.564,0.65
							C239.484,313.777,243.137,313.056,246.823,312.444z"/>
					</g>
					<g>
						<path style="fill:#D6756B;" d="M234.636,291.404c-1.011,0.282-2.047,0.436-3.081,0.583c-1.038,0.117-2.079,0.224-3.127,0.222
							C230.491,291.857,232.554,291.613,234.636,291.404z"/>
					</g>
					<g>
						<path style="fill:#D6756B;" d="M224.288,295.083c-0.099,0.381-0.091,0.756-0.051,1.121c0.046,0.365,0.104,0.73,0.229,1.083
							c0.08,0.364,0.226,0.711,0.349,1.071c0.13,0.358,0.277,0.712,0.394,1.094c-0.28-0.283-0.51-0.604-0.714-0.944
							c-0.196-0.344-0.348-0.714-0.471-1.097c-0.095-0.389-0.168-0.793-0.139-1.201C223.915,295.81,224.014,295.385,224.288,295.083
							z"/>
					</g>
					<g>
						<path style="fill:#D6756B;" d="M225.208,301.898c0.084,0.822,0.174,1.601,0.437,2.337c0.098,0.378,0.262,0.731,0.441,1.079
							c0.167,0.358,0.399,0.678,0.617,1.036c-0.351-0.22-0.672-0.504-0.917-0.849c-0.258-0.337-0.436-0.728-0.578-1.126
							C224.974,303.566,224.912,302.687,225.208,301.898z"/>
					</g>
					<g>
						<path style="fill:#D6756B;" d="M227.61,310.605c0.251,0.739,0.465,1.447,0.836,2.074c0.161,0.326,0.386,0.607,0.623,0.879
							c0.239,0.277,0.536,0.489,0.854,0.726c-0.386-0.058-0.772-0.212-1.091-0.464c-0.32-0.249-0.575-0.574-0.786-0.917
							C227.684,312.187,227.482,311.388,227.61,310.605z"/>
					</g>
				</g>
			</g>
			<path style="fill:#C2257B;" d="M287.846,210.021c-3.46,19.524-22.338,33.693-44.949,33.693
				c-22.207,0-40.854-13.698-44.774-32.708c9.723-4.084,17.224-6.11,17.224-6.11c7.172-2.508,53.206-0.81,66.05,3.876
				C281.396,208.773,283.86,209.146,287.846,210.021z"/>
			<path style="fill:#9E1F63;" d="M174.687,223.728c0,0-16.764,13.692-26.983,43.986s-28.47,125.56-7.3,111.689
				s57.718-44.904,57.718-44.904V309.11l-26.329,10.797c0,0,14.746-44.894,14.448-64.604
				C185.943,235.593,174.687,223.728,174.687,223.728z"/>
			<path style="fill:#9E1F63;" d="M324.43,223.728c0,0,16.763,13.692,26.984,43.986c10.219,30.294,28.47,125.56,7.299,111.689
				c-21.171-13.87-46.302-43.542-46.302-43.542l4.85-22.496l10.063,6.543c0,0-12.019-45.259-11.721-64.969
				C315.901,235.228,324.43,223.728,324.43,223.728z"/>
			<path style="fill:#C2257B;" d="M287.846,210.021c-3.46,19.524-22.338,33.693-44.949,33.693
				c-22.207,0-40.854-13.698-44.774-32.708c9.723-4.084,17.224-6.11,17.224-6.11c7.172-2.508,53.206-0.81,66.05,3.876
				C281.396,208.773,283.86,209.146,287.846,210.021z"/>
			<path style="fill:#F49A90;" d="M281.395,208.773c-2.792,16.064-18.976,28.371-38.5,28.371c-19.501,0-35.664-12.275-38.5-28.294
				c8.475-2.88,20.323-7.567,20.323-7.567v-8.398h36.584v8.398C261.302,201.283,272.942,205.883,281.395,208.773z"/>
			<path style="fill:#D6756B;" d="M264.347,202.466c-2.541,8.628-11.125,14.968-21.331,14.968c-10.206,0-18.801-6.34-21.33-14.968
				c1.861-0.723,3.033-1.183,3.033-1.183v-8.398h36.584v8.398C261.303,201.283,262.475,201.743,264.347,202.466z"/>
			<path style="fill:#FFF200;" d="M194.606,138.392l87.217-32.1c5.639-3.011,4.669-8.079,4.669-8.079s-1.822-11.631-5.928-19.569
				c-0.652-1.261-1.596-2.328-2.749-3.259c-6.456-0.889-13.904-0.514-23.531-0.3c-12.319,0.274-21.9,2.19-29.017,8.213
				c-7.117,6.022-14.235,8.486-23.681,11.497c-9.446,3.011-18.203,10.129-18.203,10.129c-1,6.225-0.387,19.871,0.057,27.327
				C185.456,139.247,194.606,138.392,194.606,138.392z"/>
			<path style="fill:#FFBF00;" d="M281.823,99.996c-1.792-0.262-51.66-9.854-91.323,28.105c0,0-5.354,5.657,3.406,6.935
				c2.267,0.331,9.07-0.894,17.964-2.998l69.953-25.746c0.906-0.484,1.626-1.023,2.222-1.584
				C285.098,101.137,283.247,100.205,281.823,99.996z"/>
			<path style="fill:#BC691C;" d="M358.307,500c-2.19-30.329-42.704-92.31-42.704-92.31v-0.127
				c-71.736,24.737-116.967,17.32-130.887,13.862C168.858,441.723,158.465,500,158.465,500H358.307z"/>
			<path style="fill:#AB5505;" d="M271.072,464.204h-33.58c4.663,2.544,9.447,3.604,13.892,3.837V500h4.36v-31.959h-0.368
				C264.327,467.573,271.072,464.204,271.072,464.204z"/>
			<g>
				<path style="fill:#603813;" d="M206.827,422.407c-0.088,0.777-0.186,1.544-0.285,2.299
					c-5.519,38.993-38.358,53.983-44.084,56.316c0.208-0.865,0.416-1.741,0.635-2.65c8.136-3.635,36.212-18.604,41.249-53.841
					c0.12-0.777,0.219-1.566,0.307-2.365L206.827,422.407z"/>
			</g>
			<g>
				<path style="fill:#603813;" d="M346.745,463.644c-32.094-2.102-48.41-41.402-51.498-49.702c-0.35-0.942-0.536-1.478-0.547-1.533
					l2.081-0.679c0.022,0.055,0.208,0.624,0.58,1.621c3.088,8.223,18.527,45.125,48.333,48.026
					C346.055,462.133,346.406,462.889,346.745,463.644z"/>
			</g>
			<path style="fill:#F49A90;" d="M284.446,147.081c0,19.589-7.435,36.836-18.703,46.855c-6.526,5.803-14.323,9.176-22.721,9.176
				c-14.093,0-26.532-9.504-34.011-24.035c-0.81-1.555-1.555-3.165-2.234-4.829c-3.307-8.048-5.191-17.312-5.191-27.167
				c0-12.516,3.033-24.068,8.147-33.387c12.636-7.38,31.109-14.881,54.136-15.034C276.178,108.373,284.446,126.418,284.446,147.081z
				"/>
			<path style="fill:#D6756B;" d="M238.283,121.495c-2.541,2.343-4.652,6.806-6.878,9.717c-5.83,7.628-12.949,14.197-18.697,21.845
				c-2.832,3.769-4.416,8.38-4.85,13.052c-0.416,4.481,1.237,8.599,1.154,12.967c0,0-0.132,6.894-1.733,10.444
				c0,0-2.488-15.703-5.604-22.639c-3.115-6.935,4.212-24.043,18.588-31.793C227.167,131.367,232.551,126.78,238.283,121.495z"/>
			<path style="fill:#D6756B;" d="M272.231,186.818c-1.971,2.661-4.139,5.048-6.482,7.117c-0.504,0.449-1.007,0.876-1.522,1.281
				c-2.212-9.505,5.42-23.608,9.231-37.098c4.49-15.878-16.677-28.908-25.229-35.478c-8.552-6.57-8.355-21.079-8.355-21.079
				c11.202,28.108,24.933,14.585,36.704,35.664C284.155,150.804,277.75,172.846,272.231,186.818z"/>
			<path style="fill:#234AA5;" d="M190.5,128.102c0,0,35.095-36.865,91.323-28.105c0,0,3.208,11.497,2.617,16.699
				c-0.591,5.201,2.146,9.673,6.8,11.407c4.654,1.733,11.771,6.661,12.045,13.231c0.274,6.57,0,13.14,5.475,17.246
				c5.475,4.106,9.581,9.581,9.581,19.436c0,9.855,5.749,15.877,12.319,20.257c6.57,4.38,11.497,21.079,2.19,26.28
				c-9.307,5.201-12.045-1.095-15.33,12.592c-3.285,13.688-4.38,28.196-25.185,28.47c-20.805,0.274-21.9-16.972-18.889-26.006
				s3.833-22.995-1.095-27.101c-4.927-4.106-9.307-19.137-4.654-30.373c4.654-11.236,22.933-40.894-12.593-57.226
				c0,0-9.855-3.011-13.414-17.246c0,0,0.548,16.317-15.877,28.416c-5.906,4.35-13.129,8.632-16.971,15.107
				c-2.671,4.502-3.169,10.142-2.598,15.252c0.852,7.625,6.078,13.767,4.326,21.753c-0.506,2.307-1.457,4.502-1.902,6.822
				c-1.52,7.924,5.973,9.809,9.205,15.58c3.833,6.844,7.939,30.386-2.738,40.515c-10.676,10.129-18.889,14.509-36.409,9.034
				c-17.52-5.475-22.447-23.269-19.436-35.04c3.011-11.771,5.475-13.14,10.129-20.257c4.654-7.118,1.369-19.436,9.855-29.291
				c5.262-6.111,1.536-15.134,3.478-25.915C183.944,143.03,193.203,135.764,190.5,128.102z"/>
			
				<path style="fill:none;stroke:#2E1708;stroke-width:1.4235;stroke-linecap:round;stroke-linejoin:round;stroke-miterlimit:10;" d="
				M240.048,149.636c0,0,3.285,27.375-1.825,34.492l8.213-1.995"/>
			<g>
				<path style="fill:#871B55;" d="M234.607,190.839c-1.236,3.501,8.235,8.73,18.091,4.476c9.6-4.376,10.584-11.961,8.1-13.181
					C255.797,189.038,245.323,193.462,234.607,190.839z"/>
				<path style="fill:#FFFFFF;" d="M236.082,194.075c10.322,1.793,20.266-2.185,25.798-8.604c0.219-1.591-0.213-2.728-1.082-3.338
					c-5.001,6.904-15.475,11.328-26.191,8.705C234.44,191.879,234.925,193.025,236.082,194.075z"/>
			</g>
			<g>
				<path style="fill:#2E1708;" d="M276.033,136.078c-6.762-3.976-14.959-4.602-22.203-1.711c-0.568-1.503-1.135-3.006-1.702-4.507
					c8.655-3.112,18.241-2.051,25.967,2.858C277.407,133.837,276.722,134.957,276.033,136.078z"/>
				<path style="fill:#2E1708;" d="M209.34,136.078c6.763-3.976,14.959-4.602,22.203-1.711c0.568-1.503,1.135-3.006,1.702-4.507
					c-8.655-3.112-18.241-2.051-25.967,2.858C207.966,133.837,208.651,134.957,209.34,136.078z"/>
				<path style="fill:#2E1708;" d="M263.773,161.59c0,1.461-0.817,2.646-1.825,2.646c-1.007,0-1.824-1.185-1.824-2.646
					c0-1.461,0.817-2.646,1.824-2.646C262.956,158.944,263.773,160.128,263.773,161.59z"/>
				<path style="fill:#2E1708;" d="M226.862,161.59c0,1.461-0.817,2.646-1.825,2.646c-1.007,0-1.824-1.185-1.824-2.646
					c0-1.461,0.817-2.646,1.824-2.646C226.045,158.944,226.862,160.128,226.862,161.59z"/>
			</g>
			<g>
				<path style="fill:#E85AA6;" d="M327.324,319.907c4.593,2.152,9.021,4.591,13.408,7.1c4.37,2.538,8.699,5.148,12.861,8.048
					c-4.594-2.149-9.022-4.589-13.408-7.1C335.816,325.415,331.487,322.805,327.324,319.907z"/>
			</g>
			<g>
				<path style="fill:#E85AA6;" d="M171.739,319.907c-3.809,1.746-7.725,3.178-11.666,4.534c-3.952,1.324-7.931,2.569-12.018,3.497
					c3.808-1.749,7.724-3.181,11.666-4.534C163.674,322.083,167.654,320.838,171.739,319.907z"/>
			</g>
			<g>
				<g>
					<path style="fill:#FFE100;" d="M186.164,102.865l-0.044,27.243h-1.095l0.044-26.466
						C185.398,103.402,185.759,103.139,186.164,102.865z"/>
				</g>
				<g>
					<path style="fill:#FFE100;" d="M189.449,126.09l-1.095,0.011l-0.109-24.659c0.35-0.23,0.712-0.46,1.095-0.69L189.449,126.09z"
						/>
				</g>
				<g>
					<path style="fill:#FFE100;" d="M193.446,122.608l-1.095,0.033l-0.624-23.345c0.35-0.208,0.712-0.416,1.084-0.613
						L193.446,122.608z"/>
				</g>
				<g>
					<path style="fill:#FFE100;" d="M197.454,118.6l-1.095,0.022c-0.098-7.052-0.493-14.169-1.15-21.199
						c0.35-0.175,0.701-0.35,1.051-0.515C196.95,104.103,197.344,111.395,197.454,118.6z"/>
				</g>
				<g>
					<path style="fill:#FFE100;" d="M203.148,114.56l-1.095,0.066c-0.372-6.449-0.996-12.954-1.851-19.359
						c0.35-0.131,0.701-0.252,1.051-0.361C202.129,101.409,202.764,108.012,203.148,114.56z"/>
				</g>
				<g>
					<path style="fill:#FFE100;" d="M208.272,110.87l-1.084,0.12l-2.026-17.345c0.35-0.12,0.701-0.241,1.051-0.361L208.272,110.87z"
						/>
				</g>
				<g>
					<path style="fill:#FFE100;" d="M212.904,108.68l-1.084,0.142c-0.712-5.541-1.511-11.136-2.409-16.666
						c0.361-0.131,0.712-0.263,1.051-0.394C211.36,97.379,212.181,103.051,212.904,108.68z"/>
				</g>
				<g>
					<path style="fill:#FFE100;" d="M217.558,106.282l-1.084,0.164l-2.453-16.151c0.35-0.153,0.701-0.307,1.04-0.482
						L217.558,106.282z"/>
				</g>
				<g>
					<path style="fill:#FFE100;" d="M221.171,105.066l-1.095,0.066c-0.329-5.672-0.898-11.377-1.708-17.027
						c0.34-0.186,0.679-0.383,1.018-0.591C220.23,93.328,220.832,99.23,221.171,105.066z"/>
				</g>
				<g>
					<path style="fill:#FFE100;" d="M225.956,102.668l-1.084,0.109c-0.548-5.716-1.467-11.443-2.727-17.06
						c0.318-0.23,0.646-0.46,0.964-0.712C224.434,90.82,225.387,96.744,225.956,102.668z"/>
				</g>
				<g>
					<path style="fill:#FFE100;" d="M232.253,101.715l-1.073,0.197c-1.215-6.515-2.924-12.998-5.092-19.272
						c0.307-0.252,0.613-0.482,0.92-0.701C229.252,88.378,231.015,95.014,232.253,101.715z"/>
				</g>
				<g>
					<path style="fill:#FFE100;" d="M236.863,99.515l-1.062,0.274l-4.139-15.439c-0.394-1.478-0.799-2.989-1.27-4.479
						c-0.011,0,0-0.011,0-0.011c0.318-0.164,0.646-0.328,0.975-0.493c0.504,1.566,0.931,3.154,1.347,4.698L236.863,99.515z"/>
				</g>
				<g>
					<path style="fill:#FFE100;" d="M242.721,98.463l-1.084,0.164c-1.062-7.205-2.869-14.301-5.376-21.144
						c0.35-0.11,0.701-0.208,1.051-0.307C239.83,84.064,241.648,91.214,242.721,98.463z"/>
				</g>
				<g>
					<path style="fill:#FFE100;" d="M249.126,96.93l-1.073,0.241c-1.566-7.074-3.395-14.18-5.442-21.123
						c0.361-0.066,0.723-0.12,1.084-0.164C245.743,82.816,247.561,89.879,249.126,96.93z"/>
				</g>
				<g>
					<path style="fill:#FFE100;" d="M252.74,96.635l-1.073,0.186c-1.194-7.15-2.781-14.312-4.719-21.32
						c0.361-0.044,0.734-0.077,1.106-0.098C249.981,82.378,251.557,89.506,252.74,96.635z"/>
				</g>
				<g>
					<path style="fill:#FFE100;" d="M255.839,96.273l-1.084,0.186c-1.215-7.063-2.584-14.191-4.073-21.232
						c0.361-0.022,0.734-0.044,1.106-0.055C253.266,82.17,254.623,89.265,255.839,96.273z"/>
				</g>
				<g>
					<path style="fill:#FFE100;" d="M259.201,96.109l-1.095,0.109c-0.712-7.128-2.059-14.224-4.008-21.122
						c0.066-0.011,0.12-0.011,0.186-0.011c0.317-0.011,0.635-0.011,0.953-0.022C257.164,81.94,258.489,89.013,259.201,96.109z"/>
				</g>
				<g>
					<path style="fill:#FFE100;" d="M262.759,96.098l-1.084,0.175c-1.183-7.074-2.486-14.224-3.898-21.276
						c0.372-0.011,0.745-0.011,1.106-0.022C260.296,81.984,261.577,89.068,262.759,96.098z"/>
				</g>
				<g>
					<path style="fill:#FFE100;" d="M267.216,95.89l-1.084,0.208c-1.391-7.063-2.989-14.191-4.752-21.188
						c0.372-0.011,0.745-0.011,1.117-0.022C264.248,81.83,265.836,88.882,267.216,95.89z"/>
				</g>
				<g>
					<path style="fill:#FFE100;" d="M270.906,95.682l-1.073,0.241c-1.566-7.019-3.285-14.093-5.125-21.079
						c0.383,0,0.756-0.011,1.128-0.011C267.654,81.743,269.351,88.74,270.906,95.682z"/>
				</g>
				<g>
					<path style="fill:#FFE100;" d="M273.457,96.065l-1.073,0.197l-3.92-21.429c0.372-0.011,0.755,0,1.117,0L273.457,96.065z"/>
				</g>
				<g>
					<path style="fill:#FFE100;" d="M277.607,96.963l-1.073,0.186c-1.336-7.534-3.241-15.023-5.672-22.283
						c0.394,0.011,0.788,0.022,1.172,0.033C274.41,82.082,276.282,89.506,277.607,96.963z"/>
				</g>
				<g>
					<path style="fill:#FFE100;" d="M279.48,96.81l-1.084,0.164c-1.139-7.369-2.661-14.75-4.511-21.977
						c0.394,0.022,0.777,0.055,1.161,0.088C276.863,82.235,278.352,89.539,279.48,96.81z"/>
				</g>
				<g>
					<path style="fill:#FFE100;" d="M282.71,97.5l-1.095,0.022c-0.164-7.687-2.595-15.1-5.037-22.283
						c0.405,0.033,0.81,0.088,1.204,0.142C280.191,82.476,282.535,89.824,282.71,97.5z"/>
				</g>
				<g>
					<path style="fill:#FFE100;" d="M285.042,98.485l-1.095,0.088c-0.504-6.723-1.642-13.414-3.383-19.929
						c0.985,1.894,1.829,3.997,2.562,6.099C284.057,89.276,284.703,93.875,285.042,98.485z"/>
				</g>
			</g>
			<g>
				<path style="fill:#FFFFFF;" d="M185.572,130.382c2.564-3.763,5.745-7.073,9.099-10.153c3.388-3.05,7.026-5.835,10.883-8.277
					l1.434-0.936l1.479-0.863l2.976-1.697l3.064-1.531l1.533-0.765l1.57-0.684l3.147-1.355c1.046-0.46,2.139-0.799,3.207-1.204
					c1.075-0.385,2.144-0.79,3.225-1.157l3.285-0.974c1.1-0.305,2.187-0.667,3.298-0.919l3.328-0.787
					c2.21-0.563,4.46-0.948,6.694-1.398c2.236-0.443,4.501-0.733,6.752-1.092c2.268-0.247,4.527-0.571,6.807-0.679
					c4.547-0.344,9.119-0.406,13.669-0.102c1.137,0.075,2.271,0.21,3.405,0.312c1.129,0.16,2.262,0.28,3.383,0.483
					c2.246,0.364,4.483,0.851,6.628,1.609c-2.18-0.645-4.423-1.031-6.671-1.322c-1.122-0.162-2.255-0.241-3.381-0.359
					c-1.132-0.061-2.261-0.154-3.394-0.188c-4.527-0.194-9.065-0.038-13.572,0.405c-9.02,0.797-17.952,2.594-26.646,5.087
					c-8.683,2.489-17.103,6.024-24.776,10.826c-3.876,2.333-7.539,5.021-10.977,7.968
					C191.571,123.558,188.332,126.769,185.572,130.382z"/>
			</g>
			<g>
				
					<path style="fill:none;stroke:#446BC7;stroke-width:1.4235;stroke-linecap:round;stroke-linejoin:round;stroke-miterlimit:10;" d="
					M206.648,124.258c-2.747,4.812-8.456,7.348-11.221,12.149c-1.918,3.33-2.18,7.342-2.133,11.184
					c0.178,14.462,3.877,29.928-2.859,42.726c-1.307,2.483-2.974,4.771-4.158,7.315c-1.289,2.769-1.979,5.815-2.011,8.869
					c-0.051,4.866,1.245,10.609-2.316,13.925c-1.416,1.319-3.341,1.919-4.991,2.93c-6.509,3.989-7.285,12.971-7.342,20.606"/>
				
					<path style="fill:none;stroke:#446BC7;stroke-width:1.4235;stroke-linecap:round;stroke-linejoin:round;stroke-miterlimit:10;" d="
					M269.082,109.071c3.613,1.57,5.721,5.35,7.097,9.041c1.376,3.692,2.339,7.649,4.757,10.759c2.296,2.955,5.706,4.871,8.088,7.757
					c6.256,7.581,3.649,18.798,5.233,28.498c1.267,7.761,5.542,14.992,11.732,19.842c2.508,1.965,5.324,3.563,7.551,5.842
					c5.366,5.488,6.365,13.774,7.057,21.417"/>
				
					<path style="fill:none;stroke:#446BC7;stroke-width:1.4235;stroke-linecap:round;stroke-linejoin:round;stroke-miterlimit:10;" d="
					M284.22,175.732c0.661,9.555,11.348,15.197,14.832,24.119c4.323,11.07-3.478,23.798-0.305,35.251
					c0.804,2.902,2.29,5.586,3.025,8.507c0.735,2.921,0.564,6.351-1.544,8.503"/>
				
					<path style="fill:none;stroke:#446BC7;stroke-width:1.4235;stroke-linecap:round;stroke-linejoin:round;stroke-miterlimit:10;" d="
					M193.408,253.683c-2.943-4.801-2.511-11.437,1.03-15.816c3.213-3.973,8.602-6.14,10.72-10.79
					c1.613-3.543,0.898-7.706-0.358-11.391c-1.257-3.685-3.034-7.245-3.52-11.108c-1.225-9.741,5.858-20.093,1.608-28.944"/>
			</g>
			<path style="fill:#1A3980;" d="M281.823,99.996c-56.228-8.76-91.323,28.105-91.323,28.105s42.129-33.38,92.742-22.235
				C282.545,102.588,281.823,99.996,281.823,99.996z"/>
			<path style="fill:#AB5505;" d="M315.603,407.563v-12.465c-88.147,27.375-135.481,8.76-135.481,8.76l4.629,17.52
				c-0.012,0.015-0.024,0.031-0.035,0.047C198.636,424.883,243.867,432.299,315.603,407.563z"/>
			<g>
				<g>
					<circle style="fill:none;stroke:#FFFFFF;stroke-width:2.19;stroke-miterlimit:10;" cx="265.762" cy="154.452" r="16.06"/>
					<circle style="fill:none;stroke:#FFFFFF;stroke-width:2.19;stroke-miterlimit:10;" cx="220.262" cy="154.452" r="16.06"/>
					<path style="fill:none;stroke:#FFFFFF;stroke-width:2.19;stroke-miterlimit:10;" d="M236.282,155.521
						c1.941-0.985,4.284-1.56,6.808-1.561c2.453-0.001,4.736,0.544,6.645,1.478"/>
				</g>
				<g style="opacity:0.4;">
					<g>
						
							<rect x="220.98" y="135.146" transform="matrix(0.6359 -0.7718 0.7718 0.6359 -34.5135 227.3619)" style="fill:#FFFFFF;" width="5.475" height="30.229"/>
					</g>
					<g>
						
							<rect x="214.056" y="143.829" transform="matrix(0.6359 -0.7718 0.7718 0.6359 -43.7353 225.1803)" style="fill:#FFFFFF;" width="5.475" height="30.229"/>
					</g>
				</g>
				<g style="opacity:0.4;">
					<g>
						
							<rect x="266.487" y="135.146" transform="matrix(0.6359 -0.7718 0.7718 0.6359 -17.9453 262.4821)" style="fill:#FFFFFF;" width="5.475" height="30.229"/>
					</g>
					<g>
						
							<rect x="259.563" y="143.829" transform="matrix(0.6359 -0.7718 0.7718 0.6359 -27.167 260.3006)" style="fill:#FFFFFF;" width="5.475" height="30.229"/>
					</g>
				</g>
			</g>
			<g>
				<path style="fill:#E892C0;" d="M333.237,233.254c7.37,9.106,13.039,19.546,17.212,30.506c2.122,5.477,3.732,11.13,5.256,16.782
					c1.522,5.658,2.908,11.349,4.183,17.065c2.477,11.446,4.686,22.956,6.281,34.561c1.551,11.593,2.856,23.305,2.231,35.013
					c0.128-5.853-0.277-11.69-0.83-17.506c-0.584-5.814-1.325-11.612-2.234-17.385c-1.764-11.553-3.96-23.042-6.516-34.446
					c-1.24-5.71-2.592-11.397-4.077-17.046c-1.474-5.653-3.097-11.263-5.081-16.746c-1.987-5.481-4.336-10.838-7.086-15.987
					C339.866,242.895,336.734,237.944,333.237,233.254z"/>
			</g>
			<g>
				<path style="fill:#E892C0;" d="M165.688,233.254c-3.497,4.691-6.629,9.642-9.341,14.811c-2.749,5.149-5.098,10.506-7.085,15.987
					c-1.984,5.482-3.607,11.093-5.081,16.746c-1.485,5.649-2.837,11.336-4.077,17.046c-2.555,11.404-4.751,22.893-6.516,34.446
					c-0.909,5.773-1.65,11.571-2.234,17.385c-0.554,5.815-0.958,11.652-0.83,17.506c-0.624-11.707,0.68-23.42,2.231-35.013
					c1.596-11.605,3.805-23.115,6.281-34.561c1.275-5.716,2.662-11.407,4.183-17.065c1.525-5.652,3.134-11.305,5.256-16.782
					C152.649,252.799,158.318,242.359,165.688,233.254z"/>
			</g>
			<g>
				<path style="fill:#BC691C;" d="M215.444,425.144c-5.464-0.142-10.304-0.493-14.52-0.953l-2.945-15.659v-0.493
					c4.61,0.712,10.107,1.336,16.469,1.686L215.444,425.144z"/>
				<path style="fill:#BC691C;" d="M262.923,407.241l-3.931,14.771c-4.391,0.701-8.607,1.27-12.647,1.708l-1.643-14.421
					C250.408,408.851,256.485,408.183,262.923,407.241z"/>
				<path style="fill:#BC691C;" d="M308.092,397.342l-1.248,13.118c-3.066,0.975-6.077,1.894-9.034,2.759l-4.271-11.99
					C298.248,400.08,303.099,398.788,308.092,397.342z"/>
			</g>
		</g>
		<g>
			<g>
				<path style="fill:#E6E6E6;" d="M153.318,194.023v-11.219v-7.246c0-2.852-2.312-5.164-5.164-5.164H48.066
					c-2.852,0-5.164,2.312-5.164,5.164v7.246v40.019c0,2.852,2.312,5.164,5.164,5.164h100.088c2.852,0,5.164-2.312,5.164-5.164
					v-11.529l12.304-8.635L153.318,194.023z"/>
				<g>
					<path style="fill:#FFFFFF;" d="M153.318,189.863v-11.219H42.902v40.019c0,2.852,2.312,5.164,5.164,5.164h100.088
						c2.852,0,5.164-2.312,5.164-5.164v-11.529l12.304-8.635L153.318,189.863z"/>
					<path style="fill:#5DB9F4;" d="M153.318,171.398c0-2.852-2.312-5.164-5.164-5.164H48.066c-2.852,0-5.164,2.312-5.164,5.164
						v7.246h110.416V171.398z"/>
					<path style="fill:#7E98C1;" d="M110.526,192.539H85.801c-1.256,0-2.275-1.018-2.275-2.275v-0.924
						c0-1.256,1.019-2.275,2.275-2.275h24.725c1.256,0,2.275,1.018,2.275,2.275v0.924
						C112.801,191.521,111.782,192.539,110.526,192.539z"/>
					<g>
						<path style="fill:#C8D4E6;" d="M140.025,203.973H85.801c-1.256,0-2.275-1.018-2.275-2.275v-0.924
							c0-1.256,1.019-2.275,2.275-2.275h54.224c1.256,0,2.275,1.018,2.275,2.275v0.924
							C142.3,202.954,141.281,203.973,140.025,203.973z"/>
						<path style="fill:#C8D4E6;" d="M118.328,214.918H85.801c-1.256,0-2.275-1.019-2.275-2.275v-0.924
							c0-1.256,1.019-2.275,2.275-2.275h32.527c1.256,0,2.275,1.019,2.275,2.275v0.924
							C120.603,213.9,119.585,214.918,118.328,214.918z"/>
						<path style="fill:#C8D4E6;" d="M140.025,214.918h-14.013c-1.256,0-2.275-1.019-2.275-2.275v-0.924
							c0-1.256,1.019-2.275,2.275-2.275h14.013c1.256,0,2.275,1.019,2.275,2.275v0.924C142.3,213.9,141.281,214.918,140.025,214.918
							z"/>
					</g>
					<circle style="fill:#662D91;" cx="61.676" cy="199.623" r="12.558"/>
					<g>
						<path style="fill:#A246E6;" d="M67.15,195.762c0,3.023-2.451,5.474-5.474,5.474c-3.023,0-5.474-2.451-5.474-5.474
							c0-3.023,2.451-5.474,5.474-5.474C64.699,190.288,67.15,192.739,67.15,195.762z"/>
						<path style="fill:#A246E6;" d="M61.676,212.181c4.429,0,8.315-2.299,10.551-5.763c-0.796-2.773-2.656-5.095-5.11-6.499
							c-1.252,1.637-3.22,2.697-5.441,2.697s-4.188-1.06-5.441-2.697c-2.454,1.405-4.314,3.727-5.11,6.499
							C53.361,209.882,57.247,212.181,61.676,212.181z"/>
					</g>
				</g>
			</g>
			<g>
				<path style="fill:#E6E6E6;" d="M26.063,404.018v4.588c-0.02,0.001-0.043,0.003-0.063,0.004v1.639h0.063v1.738v0.147v1.723
					h136.159v-1.723v-0.147v-7.968H26.063z"/>
				<g>
					<rect x="26.063" y="321.13" style="fill:#5DB9F4;" width="136.16" height="88.942"/>
					<rect x="26.063" y="393.168" style="fill:#231F20;" width="136.16" height="16.904"/>
					<g>
						<g>
							<rect x="30.142" y="398.769" style="fill:#939598;" width="2.167" height="7.267"/>
							<rect x="33.84" y="398.769" style="fill:#939598;" width="2.167" height="7.267"/>
							<rect x="37.537" y="398.769" style="fill:#939598;" width="2.167" height="7.267"/>
							<rect x="41.234" y="398.769" style="fill:#939598;" width="2.168" height="7.267"/>
							<rect x="44.931" y="398.769" style="fill:#939598;" width="2.167" height="7.267"/>
						</g>
						<circle style="fill:#939598;" cx="153.593" cy="402.403" r="3.825"/>
					</g>
					<polygon style="opacity:0.6;fill:#FFFFFF;" points="86.748,348.87 86.748,369.629 101.537,359.249 					"/>
					<g>
						<path style="fill:#FFFFFF;" d="M110.421,348.87c0,0,45.825,0,45.906-0.001c0.174-0.003-0.359-1.114-0.427-1.201
							c-0.336-0.429-0.786-0.611-1.29-0.747c-0.835-0.225-1.705-0.14-2.547-0.006c-0.894,0.142-1.219,0.521-1.516-0.271
							c-0.293-0.781,0.077-2.234,0.068-3.073c-0.02-1.781-0.195-4.448-2.367-4.882c-4.404-0.881-6.124,5.84-6.414,7.051
							c0.326-1.499,1.984-10.283-3.929-10.283c-6.257,0-7.54,7.721-7.616,8.216c0.072-0.495,1.086-8.216-5.785-8.216
							c-7.099,0-5.183,10.652-5.183,10.652s-5.656-4.026-9.049-1.441C108.186,346.256,109.273,347.865,110.421,348.87z"/>
						<path style="fill:#FFFFFF;" d="M61.117,372.552c-3.962-3.018-10.564,1.682-10.564,1.682s2.236-12.435-6.05-12.435
							c-8.021,0-6.838,9.014-6.754,9.591c-0.089-0.578-1.586-9.591-8.89-9.591c-1.206,0-2.136,0.318-2.858,0.844v14.814h34.943
							C62.283,376.284,63.551,374.407,61.117,372.552z"/>
					</g>
					<rect x="26.063" y="393.168" style="fill:#FB3000;" width="136.16" height="1.33"/>
				</g>
			</g>
			<g>
				<rect x="350.559" y="314.4" style="fill:#E6E6E6;" width="123.388" height="17.68"/>
				<g>
					<g>
						<rect x="350.594" y="190.096" style="fill:#FFFFFF;" width="123.388" height="137.824"/>
						<g>
							<defs>
								
									<rect id="SVGID_00000119802229183785879630000011013594008574500745_" x="360.561" y="216.585" width="103.45" height="93.079"/>
							</defs>
							<clipPath id="SVGID_00000086668827311509450220000002368904644499603605_">
								<use xlink:href="#SVGID_00000119802229183785879630000011013594008574500745_"  style="overflow:visible;"/>
							</clipPath>
							
								<rect x="360.561" y="216.585" style="clip-path:url(#SVGID_00000086668827311509450220000002368904644499603605_);fill:#B364F4;" width="103.45" height="93.079"/>
							
								<rect x="360.544" y="280.651" style="clip-path:url(#SVGID_00000086668827311509450220000002368904644499603605_);fill:#A255A3;" width="103.45" height="29.013"/>
							<g style="clip-path:url(#SVGID_00000086668827311509450220000002368904644499603605_);">
								<path style="fill:#3D0719;" d="M445.753,289.108l0.471-18.623c0,0,0.281-8.297,1.574-11.339
									c1.292-3.042,1.756-8.665,0.007-12.723c-1.75-4.057-5.066-8.669-7.37-9.5c0,0-12.269,12.255-15.59,16.125
									c-3.321,3.87-9.41,11.519-11.532,14.468c-2.122,2.949-8.396,11.243-16.876,8.657c0,0-2.857-1.569-5.163-0.095
									c-2.306,1.474-14.017,5.432-19.273,8.471c0,0-2.582,1.75-0.647,3.319c1.935,1.568,29.558,4.718,38.426,3.617
									c8.868-1.101,9.608-5.526,9.608-5.526s8.306-15.115,12.64-17.602c4.334-2.487,6.18-4.845,10.328-3.498
									c0,0,1.106,0.462,1.012,3.227c-0.094,2.766-0.472,20.559-0.472,20.559l0.829,0.738L445.753,289.108z"/>
								<path style="fill:#F2E9B8;" d="M405.468,282.264c-5.348,0.366-9.864-1.849-12.259-4.893c-2.395-3.044,3.409,0.649,9.357-1.1
									c0.031-0.009,0.06-0.021,0.091-0.031c5.283-1.493,9.094-6.553,10.656-8.723c2.122-2.949,8.211-10.598,11.532-14.468
									c2.871-3.346,12.424-12.953,14.961-15.496c0.288,0.128,0.358,0.502-0.018,1.306c-1.292,2.765-19.746,29.491-19.746,29.491
									S410.816,281.898,405.468,282.264z"/>
							</g>
							<g style="clip-path:url(#SVGID_00000086668827311509450220000002368904644499603605_);">
								<g>
									<path style="fill:#00CCBE;" d="M340.086,273.151c-3.626,4.748-4.959,9.824-4.959,9.824s4.546-2.622,8.172-7.37
										c3.626-4.748,4.959-9.824,4.959-9.824S343.712,268.403,340.086,273.151z"/>
									<path style="fill:#00CCBE;" d="M354.533,266.601c-2.028,5.619-1.771,10.861-1.771,10.861s3.546-3.869,5.574-9.488
										c2.028-5.619,1.771-10.861,1.771-10.861S356.562,260.982,354.533,266.601z"/>
									<path style="fill:#00CCBE;" d="M364.443,247.668c-0.44,5.958,1.22,10.937,1.22,10.937s2.372-4.681,2.812-10.639
										c0.44-5.958-1.22-10.936-1.22-10.936S364.882,241.71,364.443,247.668z"/>
								</g>
								<path style="fill:#00CCBE;" d="M366.35,268.773c-5.652,1.937-9.578,5.419-9.578,5.419s5.237,0.342,10.888-1.595
									c5.651-1.937,9.578-5.419,9.578-5.419S372.001,266.836,366.35,268.773z"/>
								<path style="fill:#00CCBE;" d="M356.144,279.716c-5.953-0.5-10.948,1.109-10.948,1.109s4.657,2.42,10.61,2.919
									c5.953,0.5,10.948-1.109,10.948-1.109S362.097,280.216,356.144,279.716z"/>
								<path style="fill:#00CCBE;" d="M373.793,256.431c-5.651,1.937-9.578,5.419-9.578,5.419s5.237,0.342,10.888-1.595
									c5.651-1.937,9.577-5.419,9.577-5.419S379.444,254.494,373.793,256.431z"/>
								<path style="fill:#00CCBE;" d="M379.104,246.864c-5.874,1.091-10.266,3.963-10.266,3.963s5.131,1.103,11.004,0.012
									c5.874-1.091,10.266-3.963,10.266-3.963S384.978,245.773,379.104,246.864z"/>
								<g>
									
										<path style="fill:none;stroke:#DA1C5C;stroke-width:0.9481;stroke-linecap:round;stroke-linejoin:round;stroke-miterlimit:10;" d="
										M326.551,283.227c17.868,0.327,26.58-4.977,31.231-9.848c8.617-9.026,6.546-21.758,17.651-28.746
										c2.912-1.833,5.539-3.302,8.164-4.325"/>
								</g>
								<g>
									<path style="fill:#00CCBE;" d="M391.334,236.945c-5.874,1.091-10.266,3.963-10.266,3.963s5.131,1.103,11.004,0.012
										c5.874-1.091,10.266-3.963,10.266-3.963S397.207,235.854,391.334,236.945z"/>
									<path style="fill:#00CCBE;" d="M381.863,230.054c-0.855,5.913,0.452,10.995,0.452,10.995s2.694-4.504,3.549-10.416
										c0.855-5.913-0.452-10.995-0.452-10.995S382.718,224.141,381.863,230.054z"/>
								</g>
							</g>
							<g style="clip-path:url(#SVGID_00000086668827311509450220000002368904644499603605_);">
								<g>
									<path style="fill:#00CCBE;" d="M493.651,312.343c3.209,5.039,4.105,10.21,4.105,10.21s-4.306-2.999-7.515-8.039
										c-3.209-5.039-4.105-10.21-4.105-10.21S490.442,307.303,493.651,312.343z"/>
									<path style="fill:#00CCBE;" d="M479.813,304.588c1.543,5.771,0.84,10.972,0.84,10.972s-3.203-4.157-4.746-9.928
										c-1.543-5.771-0.84-10.972-0.84-10.972S478.271,298.816,479.813,304.588z"/>
									<path style="fill:#00CCBE;" d="M471.551,284.88c-0.069,5.974-2.146,10.793-2.146,10.793s-1.966-4.866-1.897-10.84
										c0.069-5.974,2.146-10.793,2.146-10.793S471.62,278.906,471.551,284.88z"/>
								</g>
								<path style="fill:#00CCBE;" d="M467.855,305.746c5.466,2.411,9.082,6.214,9.082,6.214s-5.247-0.105-10.713-2.515
									c-5.466-2.411-9.082-6.214-9.082-6.214S462.389,303.336,467.855,305.746z"/>
								<path style="fill:#00CCBE;" d="M477.093,317.518c5.974,0.008,10.814,2.037,10.814,2.037s-4.846,2.014-10.82,2.006
									c-5.974-0.008-10.814-2.037-10.814-2.037S471.118,317.509,477.093,317.518z"/>
								<path style="fill:#00CCBE;" d="M461.489,292.816c5.466,2.411,9.082,6.214,9.082,6.214s-5.247-0.105-10.713-2.515
									c-5.466-2.411-9.082-6.214-9.082-6.214S456.023,290.405,461.489,292.816z"/>
								<path style="fill:#00CCBE;" d="M457.011,282.832c5.76,1.587,9.892,4.822,9.892,4.822s-5.206,0.663-10.965-0.924
									c-5.759-1.587-9.892-4.822-9.892-4.822S451.251,281.245,457.011,282.832z"/>
								<g>
									
										<path style="fill:none;stroke:#DA1C5C;stroke-width:0.9481;stroke-linecap:round;stroke-linejoin:round;stroke-miterlimit:10;" d="
										M506.279,323.534c-17.831-1.194-26.06-7.22-30.279-12.47c-7.818-9.726-4.671-22.236-15.141-30.144
										c-2.746-2.074-5.238-3.761-7.767-5.004"/>
								</g>
								<g>
									<path style="fill:#00CCBE;" d="M445.67,271.907c5.76,1.587,9.892,4.822,9.892,4.822s-5.206,0.662-10.965-0.924
										c-5.759-1.587-9.892-4.822-9.892-4.822S439.91,270.32,445.67,271.907z"/>
									<path style="fill:#00CCBE;" d="M455.693,265.848c0.349,5.964-1.386,10.917-1.386,10.917s-2.301-4.717-2.65-10.681
										c-0.349-5.964,1.386-10.917,1.386-10.917S455.344,259.884,455.693,265.848z"/>
								</g>
							</g>
						</g>
					</g>
					<g>
						<g>
							<path style="fill:#EF4136;" d="M371.755,203.945c-0.002,3.082-2.502,5.579-5.584,5.578c-3.082-0.002-5.579-2.502-5.577-5.584
								c0.002-3.082,2.502-5.579,5.584-5.578C369.26,198.363,371.757,200.862,371.755,203.945z"/>
							<path style="fill:#7E98C1;" d="M410.315,206.277l-32.044-0.018c-1.106-0.001-2.002-0.898-2.001-2.003l0-0.619
								c0.001-1.106,0.898-2.002,2.003-2.001l32.044,0.018c1.106,0.001,2.002,0.898,2.001,2.003l0,0.619
								C412.318,205.382,411.421,206.278,410.315,206.277z"/>
						</g>
						<g>
							<path style="fill:none;stroke:#1A3980;stroke-width:0.5779;stroke-miterlimit:10;" d="M370.788,315.636
								c-1.703-2.17-4.301,1.29-4.301,1.29s-2.594-3.463-4.299-1.295c-1.705,2.168,4.297,6.163,4.297,6.163
								S372.491,317.806,370.788,315.636z"/>
							<path style="fill:none;stroke:#1A3980;stroke-width:0.5779;stroke-miterlimit:10;" d="M381.557,318.016
								c0.001-1.762-1.427-3.192-3.19-3.193c-1.763-0.001-3.192,1.427-3.193,3.19c-0.001,1.762,1.427,3.192,3.189,3.193
								c0.326,0,0.64-0.049,0.937-0.14l0,0l1.281,0.735l-0.223-1.297C381.088,319.921,381.556,319.024,381.557,318.016z"/>
							<g>
								<polygon style="fill:none;stroke:#1A3980;stroke-width:0.5779;stroke-miterlimit:10;" points="385.641,315.587 
									388.529,318.256 387.579,322.491 394.556,315.592 								"/>
								
									<line style="fill:none;stroke:#1A3980;stroke-width:0.5779;stroke-miterlimit:10;" x1="388.529" y1="318.256" x2="394.556" y2="315.592"/>
							</g>
						</g>
					</g>
				</g>
			</g>
			<g>
				<path style="fill:#E6E6E6;" d="M390.099,405.281c-5.542,0-10.614,2.002-14.541,5.319l-16.391-3.677l8.849,16.314
					c-0.307,1.484-0.47,3.022-0.47,4.597c0,12.456,10.097,22.553,22.553,22.553c12.455,0,22.553-10.097,22.553-22.553
					C412.651,415.378,402.554,405.281,390.099,405.281z"/>
				<g>
					<path style="fill:#5147B2;" d="M390.099,401.168c-5.542,0-10.614,2.003-14.541,5.319l-16.391-3.677l8.849,16.314
						c-0.307,1.484-0.47,3.021-0.47,4.597c0,12.456,10.097,22.553,22.553,22.553c12.455,0,22.553-10.097,22.553-22.553
						S402.554,401.168,390.099,401.168z"/>
					<path style="fill:#FFFFFF;" d="M397.679,410.094l-0.483-0.144l-1.087-0.324l-6.602,22.125c-0.864-1.257-2.348-2.33-4.194-2.881
						c-3.43-1.023-6.805,0.142-7.54,2.603c-0.734,2.461,1.451,5.285,4.88,6.309c3.43,1.023,6.805-0.142,7.54-2.603l5.384-18.042
						c2.073-2.099,5.77,6.368,5.77,6.368C403.052,417.79,397.679,410.094,397.679,410.094z"/>
				</g>
			</g>
		</g>
		<g>
			<path style="fill:#F93661;" d="M226.071,242.565c-6.307-2.727-7.882,7.937-7.882,7.937s-9.797-4.497-10.951,2.277
				c-1.155,6.774,16.733,8.383,16.733,8.383S232.378,245.292,226.071,242.565z"/>
			<path style="fill:#F93661;" d="M204.089,233.416c-2.08-4.539-8.115,0.454-8.115,0.454s-3.104-7.192-7.021-4.096
				c-3.917,3.096,4.959,12.663,4.959,12.663S206.169,237.955,204.089,233.416z"/>
			<path style="fill:#F93661;" d="M159.234,132.362c-4.228-2.657-6.539,4.827-6.539,4.827s-6.538-4.315-8.117,0.422
				c-1.579,4.737,11.089,7.874,11.089,7.874S163.462,135.018,159.234,132.362z"/>
			<path style="fill:#F93661;" d="M331.071,90.779c-4.313-2.516-6.376,5.04-6.376,5.04s-6.677-4.096-8.099,0.69
				s11.342,7.504,11.342,7.504S335.384,93.295,331.071,90.779z"/>
			<path style="fill:#F93661;" d="M110.883,279.065c-4.313-2.516-6.376,5.041-6.376,5.041s-6.676-4.097-8.099,0.69
				c-1.422,4.786,11.342,7.504,11.342,7.504S115.196,281.581,110.883,279.065z"/>
			<path style="fill:#F93661;" d="M346.021,394.364c-0.56-4.962-7.852-2.1-7.852-2.1s-0.706-7.801-5.393-6.081
				c-4.688,1.72,0.762,13.578,0.762,13.578S346.581,399.326,346.021,394.364z"/>
			<path style="fill:#F93661;" d="M373.163,137.059c-2.301-6.475-11.18-0.362-11.18-0.362s-3.382-10.235-9.128-6.466
				c-5.745,3.77,5.263,17.96,5.263,17.96S375.464,143.534,373.163,137.059z"/>
		</g>
	</g>
</g>
</svg>
