<?xml version="1.0" encoding="utf-8"?>
<!-- Generator: Adobe Illustrator 27.5.0, SVG Export Plug-In . SVG Version: 6.00 Build 0)  -->
<svg version="1.1" id="Layer_1" xmlns="http://www.w3.org/2000/svg" xmlns:xlink="http://www.w3.org/1999/xlink" x="0px" y="0px"
	 viewBox="0 0 2944 2000" style="enable-background:new 0 0 2944 2000;" xml:space="preserve">
<rect style="fill:#FFFFFF;" width="2944" height="2000"/>
<g>
	<g>
		<g>
			<path style="fill:#FCE0DB;" d="M307.886,1818.246C-64.963,1308.001,115.615,630.603,349.065,471.225
				c338.753-231.268,569.478,37.297,920.494,36.921c377.393-0.403,342.954-401.47,870.589-362.18
				c513.934,38.27,713.233,567.208,740.073,961.177c27.352,401.495-61.451,619.255-114.602,711.103H307.886z"/>
		</g>
	</g>
	<g>
		<g>
			<g>
				<g>
					<g>
						<g>
							<g>
								<path style="fill:#7FC6A6;" d="M2307.19,1822.02c4.296-3.437,74.372-138.55,120.768-74.111
									c0,0,69.594-236.275,164.963-225.106c95.369,11.169,14.606,186.443,14.606,186.443s81.622-33.508,62.72,54.988
									c0,0,103.961-18.902,96.229,55.847L2307.19,1822.02z"/>
							</g>
						</g>
					</g>
				</g>
			</g>
			<g>
				<g>
					<g>
						<g>
							<g>
								
									<ellipse transform="matrix(0.6382 -0.7699 0.7699 0.6382 -258.1397 2670.7119)" style="fill:#7FC6A6;" cx="2712.246" cy="1609.985" rx="36.086" ry="19.332"/>
							</g>
						</g>
					</g>
				</g>
			</g>
			<g>
				<g>
					<g>
						<g>
							<g>
								<path style="fill:#7FC6A6;" d="M2716.767,1658.029c-7.529,9.083-9.688,19.716-4.822,23.75s14.914-0.06,22.443-9.144
									s9.688-19.716,4.822-23.75C2734.344,1644.853,2724.296,1648.946,2716.767,1658.029z"/>
							</g>
						</g>
					</g>
				</g>
			</g>
		</g>
		<g>
			<g>
				<g>
					<g>
						<g>
							<g>
								<path d="M2603.75,1726.524c-0.244-0.053-0.469-0.197-0.618-0.421c-0.306-0.458-0.183-1.078,0.275-1.384
									c0.833-0.557,20.616-13.603,37.979-9.836c0.004,0.001,0.006,0.001,0.01,0.002c0.539,0.117,0.88,0.649,0.763,1.187
									c-0.117,0.538-0.648,0.88-1.187,0.763c-0.002-0.001-0.006-0.001-0.01-0.002c-16.529-3.586-36.25,9.413-36.447,9.545
									C2604.281,1726.535,2604.005,1726.58,2603.75,1726.524z"/>
							</g>
						</g>
					</g>
				</g>
			</g>
			<g>
				<g>
					<g>
						<g>
							<g>
								<path d="M2617.045,1728.016c-0.246-0.053-0.471-0.198-0.621-0.425c-0.304-0.459-0.178-1.078,0.281-1.383
									c0.381-0.252,9.518-6.167,25.742-5.158c0.554,0.036,0.968,0.508,0.934,1.058c-0.034,0.55-0.508,0.969-1.058,0.934
									c-15.562-0.968-24.429,4.772-24.516,4.83C2617.574,1728.027,2617.3,1728.071,2617.045,1728.016z"/>
							</g>
						</g>
					</g>
				</g>
			</g>
		</g>
		<g>
			<g>
				<g>
					<g>
						<g>
							<path d="M2369.287,1766.605c-0.25,0-0.5-0.093-0.693-0.28c-0.396-0.383-0.407-1.015-0.025-1.411
								c0.696-0.721,17.264-17.664,35.031-17.664c0.574,0.012,1.008,0.443,1.008,0.998c0,0.551-0.447,0.998-0.998,0.998
								c-0.001-0.001-0.007,0-0.01,0c-16.929,0-33.43,16.884-33.595,17.055C2369.809,1766.503,2369.548,1766.605,2369.287,1766.605z
								"/>
						</g>
					</g>
				</g>
			</g>
		</g>
		<g>
			<g>
				<g>
					<g>
						<g>
							<path d="M2382.596,1765.243c-0.251,0-0.503-0.094-0.697-0.284c-0.394-0.385-0.402-1.016-0.018-1.41
								c0.318-0.327,7.993-8.045,24.062-10.498c0.553-0.082,1.054,0.292,1.137,0.836c0.083,0.545-0.291,1.054-0.835,1.137
								c-15.361,2.345-22.862,9.844-22.935,9.919C2383.115,1765.143,2382.856,1765.243,2382.596,1765.243z"/>
						</g>
					</g>
				</g>
			</g>
		</g>
	</g>
	<g>
		<path style="fill:#FFFFFF;" d="M1949.244,1039.631l-24.928-36.306l7.448-5.113l24.928,36.306L1949.244,1039.631z
			 M1899.388,967.021l-24.929-36.305l7.448-5.113l24.929,36.305L1899.388,967.021z M1849.531,894.411l-24.929-36.305l7.448-5.114
			l24.929,36.305L1849.531,894.411z M1799.673,821.802l-24.929-36.305l7.448-5.113l24.929,36.305L1799.673,821.802z
			 M1749.817,749.191l-24.929-36.305l7.448-5.113l24.929,36.305L1749.817,749.191z"/>
	</g>
	<g>
		<g>
			<g>
				<g>
					<g>
						<g>
							<g>
								<g>
									<path style="fill:#3E9896;" d="M454.052,934.089c0,0-64.872-107.255-220.507-79.442
										C233.545,854.647,338.319,1010.028,454.052,934.089z"/>
								</g>
							</g>
						</g>
					</g>
				</g>
			</g>
		</g>
		<g>
			<g>
				<g>
					<g>
						<g>
							<g>
								<g>
									<path style="fill:#80C4A4;" d="M555.358,962.402c0,0-19.325-214.995-281.174-289.579
										C274.184,672.823,318.882,992.443,555.358,962.402z"/>
								</g>
							</g>
						</g>
					</g>
				</g>
			</g>
		</g>
	</g>
	<g>
		<g>
			<g>
				<g>
					<g>
						<g>
							<path style="fill:#FFFFFF;" d="M420.855,632.056c41.021-2.164,181.597-8.093,277.726,6.158
								c12.469,1.848,20.411-13.095,11.785-22.287c-5.045-5.376-13.651-9.755-28.125-10.768c0,0,4.985-89.743-62.803-95.687
								c-77.746-6.818-78.688,81.35-78.688,81.35s-35.337-33.547-60.823,8.985c0,0-44.045-25.457-66.262,21.562
								C411.241,626.496,415.192,632.355,420.855,632.056z"/>
						</g>
					</g>
				</g>
			</g>
		</g>
	</g>
	<g>
		<g>
			<g>
				<g>
					<g>
						<g>
							<g>
								<path style="fill:#FFFFFF;" d="M1215.812,715.728c-18.36-1.052-61.401-2.886-98.818,0.269
									c-15.48,1.305-28.845-11.06-28.498-26.591c0.142-6.357,2.422-13.752,8.323-22.131c22.718-32.265,62.208-1.452,61.829,14.927
									c0,0,7.983-24.662,32.231-20.344c24.248,4.317,15.673,40.184,15.673,40.184s7.825-1.654,13.249,2.049
									C1225.135,707.73,1222.26,716.097,1215.812,715.728z"/>
							</g>
						</g>
					</g>
				</g>
			</g>
		</g>
	</g>
	<g>
		<g>
			<g>
				<g>
					<g>
						<g>
							<g>
								<path style="fill:#FFFFFF;" d="M2590.47,568.216c-25.292-1.449-84.583-3.976-136.126,0.37
									c-21.324,1.798-39.736-15.236-39.257-36.631c0.196-8.757,3.337-18.944,11.465-30.487c31.295-44.446,85.694-2,85.172,20.562
									c0,0,10.997-33.972,44.4-28.025c33.403,5.947,21.59,55.355,21.59,55.355s10.779-2.278,18.251,2.823
									C2603.313,557.199,2599.352,568.725,2590.47,568.216z"/>
							</g>
						</g>
					</g>
				</g>
			</g>
		</g>
	</g>
	<g>
		<g>
			<g>
				<g>
					<g>
						<rect x="959.168" y="1366.273" style="fill:#230C1E;" width="212.46" height="445.116"/>
					</g>
				</g>
			</g>
		</g>
		<g>
			<g>
				<g>
					<g>
						<path style="fill:#230C1E;" d="M1705.245,1528.055V918.3c0-28.972-23.486-52.458-52.458-52.458H470.527
							c-28.972,0-52.458,23.486-52.458,52.458v609.755H1705.245z"/>
					</g>
				</g>
			</g>
		</g>
		<g>
			<g>
				<g>
					<g>
						<path style="fill:#5B2750;" d="M418.069,1528.055v97.712c0,20.324,13.434,36.8,30.006,36.8h1227.163
							c16.572,0,30.007-16.476,30.007-36.8v-97.712H418.069z"/>
					</g>
				</g>
			</g>
		</g>
		<g>
			<g>
				<g>
					<g>
						<path style="fill:#DCF4FF;" d="M1675.115,1501.576V919.929c0-15.247-12.805-27.607-28.602-27.607H476.801
							c-15.796,0-28.602,12.36-28.602,27.607v581.647H1675.115z"/>
					</g>
				</g>
			</g>
		</g>
		<g>
			<g>
				<g>
					<g>
						<path style="fill:#5B2750;" d="M1352.787,1824.09c3.607-21.037-10.523-38.091-31.56-38.091H809.933
							c-21.037,0-41.014,17.054-44.621,38.091l0,0H1352.787z"/>
					</g>
				</g>
			</g>
		</g>
		<g>
			<g>
				<g>
					<g>
						<path style="fill:#21111D;" d="M1675.239,1664.105H448.076c-17.394,0-31.544-17.198-31.544-38.337V918.301
							c0-29.773,24.222-53.996,53.995-53.996v3.075c-28.077,0-50.92,22.843-50.92,50.92v707.467
							c0,19.443,12.771,35.262,28.468,35.262h1227.163V1664.105z"/>
					</g>
				</g>
			</g>
		</g>
		<g>
			<g>
				<g>
					<g>
						
							<rect x="1481.97" y="1577.645" transform="matrix(0.583 -0.8125 0.8125 0.583 -654.5945 1882.9486)" style="fill:#21111D;" width="50.219" height="3.075"/>
					</g>
				</g>
			</g>
		</g>
		<g>
			<g>
				<g>
					<g>
						
							<rect x="1482.419" y="1597.481" transform="matrix(0.5937 -0.8047 0.8047 0.5937 -674.3888 1862.3589)" style="fill:#21111D;" width="49.319" height="3.076"/>
					</g>
				</g>
			</g>
		</g>
		<g>
			<g>
				<g>
					<g>
						
							<rect x="1002.828" y="1683.319" transform="matrix(0.4961 -0.8682 0.8682 0.4961 -950.1783 1732.3617)" style="fill:#21111D;" width="29.378" height="3.075"/>
					</g>
				</g>
			</g>
		</g>
		<g>
			<g>
				<g>
					<g>
						
							<rect x="1006.239" y="1699.49" transform="matrix(0.506 -0.8625 0.8625 0.506 -963.6772 1719.4451)" style="fill:#21111D;" width="26.048" height="3.075"/>
					</g>
				</g>
			</g>
		</g>
		<g>
			<g>
				<g>
					<g>
						<path style="fill:#21111D;" d="M1676.652,1503.113H448.199v-3.075h1225.378v-580.11c0-14.375-12.141-26.069-27.063-26.069
							v-3.075c16.619,0,30.138,13.074,30.138,29.144V1503.113z"/>
					</g>
				</g>
			</g>
		</g>
		<g>
			<g>
				<g>
					<g>
						<g>
							<g>
								<g>
									<g>
										<g>
											<g>
												<path style="fill:#FE9F73;" d="M1445.009,849.445l40.266,0.578c6.988-1.836,20.77-6.435,37.17-10.905
													c4.612,13.573,8.52,23.936,10.235,23.607l0.63,3.091c0.161,0.791,0.629,1.44,1.252,1.857
													c3.048,14.286,6.496,32.531,10.375,47.609c2.757,10.712,5.419,8.853-1.458,17.012
													c-3.979,4.72-26.924,23.041-36.437,25.292l-62.04,20.586c-4.162-18.906-67.29-68.322-64.873-71.954L1445.009,849.445z"
													/>
											</g>
										</g>
									</g>
								</g>
							</g>
						</g>
					</g>
				</g>
			</g>
			<g>
				<g>
					<g>
						<g>
							<g>
								<g>
									<path style="fill:#E9516A;" d="M1103.333,1552.973l1.373-1.791l-7.186-403.026c0,0,132.556,88.905,172.281,90.608
										c39.726,1.702,203.975-242.096,203.975-242.096c-34.618-79.451-107.499-90.463-107.499-90.463l-135.634,148.687
										l-158.902-144.147c-21.187-12.863-184.061-15.646-184.061-15.646s-169.391-3.721-208.552,47.379
										c-29.014,37.859-97.146,186.001-109.252,282.099c-12.107,96.098,0,158.335,73.398,169.685l26.7,0.567l2.054,158.146
										C672.028,1552.973,819.958,1586.267,1103.333,1552.973L1103.333,1552.973z"/>
								</g>
							</g>
						</g>
					</g>
				</g>
				<g>
					<g>
						<g>
							<g>
								<g>
									<polygon style="fill:#21111D;" points="710.615,1252.089 707.595,1248.516 737.12,1223.554 748.391,1086.669 
										753.054,1087.052 741.623,1225.874 									"/>
								</g>
							</g>
						</g>
					</g>
				</g>
				<g>
					<g>
						<g>
							<g>
								<g>
									<path style="fill:#21111D;" d="M669.925,1397.167l-27.009-0.594c-36.024-5.571-59.118-23.419-70.6-54.564
										c-9.962-27.022-11.475-64.429-4.761-117.725l4.642,0.585c-13.685,108.624,6.968,157.039,71.28,167.056l26.545,0.563
										L669.925,1397.167z"/>
								</g>
							</g>
						</g>
					</g>
				</g>
				<g>
					<g>
						<g>
							<g>
								<g>
									<path style="fill:#21111D;" d="M1232.288,1094.662l-3.884-38.642l-153.87-139.584
										c-11.28-10.231-33.199-10.367-33.418-10.367v-4.679c0,0,0,0,0.002,0c0.996,0,23.942,0.133,36.56,11.58l155.204,140.792
										l4.062,40.432L1232.288,1094.662z"/>
								</g>
							</g>
						</g>
					</g>
				</g>
				<g>
					<g>
						<g>
							<g>
								<g>
									<path style="fill:#21111D;" d="M1232.373,1056.467l-3.459-3.153l136.49-149.624l1.252,0.204
										c0.724,0.118,72.877,12.735,109.245,91.795l-4.25,1.956c-32.715-71.116-95.042-86.877-104.532-88.892L1232.373,1056.467z"
										/>
								</g>
							</g>
						</g>
					</g>
				</g>
				<g>
					<g>
						<g>
							<g>
								<g>
									<path style="fill:#21111D;" d="M926.191,1569.203c-1.389,0-2.755-0.007-4.097-0.019l0.046-4.679
										c58.422,0.626,162.794-11.673,178.826-13.601l-5.799-441.496l4.679-0.062l5.853,445.691l-2.079,0.259
										C1102.471,1555.437,990.366,1569.203,926.191,1569.203z"/>
								</g>
							</g>
						</g>
					</g>
				</g>
				<g>
					<g>
						<g>
							<g>
								<g>
									<path style="fill:#FE9F73;" d="M827.649,726.602c0,0,32.032-20.67,64.544-15.418c18.827,3.041,33.548,17.899,36.793,36.691
										l3.172,18.377l-101.573-24.066c0,0-13.74,9.66-12.912,7.303C818.503,747.133,827.649,726.602,827.649,726.602z"/>
								</g>
							</g>
						</g>
					</g>
				</g>
				<g>
					<g>
						<g>
							<g>
								<g>
									<g>
										<g>
											<g>
												<path style="fill:#FE9F73;" d="M928.62,745.811l13.379,77.5c0,0,5.934,27.491-17.698,35.135l10.901,36.164
													c4.052,13.442-1.89,28.007-14.358,34.46c-6.097,3.155-13.538,5.975-22.269,7.482
													c-27.69,4.78-46.274-13.399-50.375-23.384c-4.1-9.986-5.742-60.793-5.742-60.793l-5.052-24.233l-13.155-95.004
													L928.62,745.811z"/>
											</g>
										</g>
									</g>
								</g>
							</g>
						</g>
					</g>
				</g>
				<g>
					<g>
						<g>
							<g>
								<g>
									<g>
										<g>
											<g>
												<path style="fill:#4C222E;" d="M867.509,786.03c-0.292,0.005-0.586-0.099-0.817-0.313
													c-0.473-0.439-0.502-1.18-0.062-1.654c0.158-0.171,15.976-16.919,30.893-5.317c0.51,0.396,0.603,1.132,0.206,1.642
													c-0.397,0.512-1.132,0.604-1.643,0.205c-13.218-10.278-27.152,4.43-27.739,5.061
													C868.121,785.898,867.816,786.024,867.509,786.03z"/>
											</g>
										</g>
									</g>
								</g>
							</g>
						</g>
					</g>
				</g>
				<g>
					<g>
						<g>
							<g>
								<g>
									<g>
										<g>
											<g>
												<path style="fill:#4C222E;" d="M918.309,771.48c-0.321,0.066-0.668-0.003-0.948-0.219
													c-0.512-0.393-0.609-1.128-0.216-1.641c0.38-0.496,9.408-12.092,17.539-7.575c0.565,0.314,0.769,1.026,0.455,1.591
													c-0.313,0.567-1.026,0.77-1.592,0.455c-6.37-3.538-14.464,6.851-14.545,6.956
													C918.824,771.279,918.575,771.426,918.309,771.48z"/>
											</g>
										</g>
									</g>
								</g>
							</g>
						</g>
					</g>
				</g>
				<g>
					<g>
						<g>
							<g>
								<g>
									<g>
										<g>
											<g>
												<path d="M892.211,794.528c0.33,1.912-0.952,3.729-2.864,4.059c-1.912,0.33-3.729-0.952-4.059-2.864
													c-0.33-1.912,0.952-3.729,2.864-4.059C890.064,791.335,891.881,792.616,892.211,794.528z"/>
											</g>
										</g>
									</g>
								</g>
							</g>
						</g>
					</g>
				</g>
				<g>
					<g>
						<g>
							<g>
								<g>
									<g>
										<g>
											<g>
												<path d="M928.406,784.716c0.33,1.912-0.952,3.729-2.864,4.059c-1.912,0.33-3.729-0.952-4.059-2.864
													c-0.33-1.912,0.952-3.729,2.864-4.059C926.259,781.522,928.076,782.804,928.406,784.716z"/>
											</g>
										</g>
									</g>
								</g>
							</g>
						</g>
					</g>
				</g>
				<g>
					<g>
						<g>
							<g>
								<g>
									<g>
										<g>
											<g>
												<path style="fill:#4C222E;" d="M827.441,725.394c0,0-29.552,3.652-32.562,30.575
													c-3.009,26.923,12.002,38.289,13.578,45.889c1.576,7.599,5.289,60.029,40.804,49.938l-4.924-86.809l-18.443-31.716
													L827.441,725.394z"/>
											</g>
										</g>
									</g>
								</g>
							</g>
						</g>
					</g>
				</g>
				<g>
					<g>
						<g>
							<g>
								<g>
									<g>
										<g>
											<g>
												<path style="fill:#FE9F73;" d="M863.416,798.261c1.98,11.47-5.713,22.373-17.183,24.353
													c-11.47,1.98-22.373-5.713-24.353-17.183c-1.98-11.47,5.713-22.373,17.183-24.353
													C850.532,779.099,861.436,786.792,863.416,798.261z"/>
											</g>
										</g>
									</g>
								</g>
							</g>
						</g>
					</g>
				</g>
				<g>
					<g>
						<g>
							<g>
								<g>
									<g>
										<g>
											<g>
												<path style="fill:#F07162;" d="M843.308,814.839c-4.314,0.745-7.756-2.001-9.264-5.077
													c-1.784-3.639-1.141-7.585,1.638-10.055c4.107-3.649,8.592-2.537,10.971-1.5c-1.303-2.203-3.005-3.676-5.075-4.389
													c-4.48-1.546-9.272,0.971-9.32,0.996c-0.284,0.154-0.64,0.045-0.793-0.24c-0.152-0.285-0.045-0.638,0.239-0.792
													c0.213-0.114,5.278-2.781,10.247-1.074c2.869,0.985,5.091,3.224,6.604,6.651l0.849,1.922l-1.721-1.207
													c-0.243-0.171-6.011-4.121-11.223,0.508c-2.886,2.563-2.539,6.27-1.365,8.664c1.219,2.486,4.042,5.125,8.009,4.44
													c0.04-0.007,0.077-0.017,0.119-0.022c0.314-0.054,0.615,0.154,0.675,0.47c0.059,0.317-0.15,0.623-0.468,0.683
													C843.39,814.823,843.349,814.831,843.308,814.839z"/>
											</g>
										</g>
									</g>
								</g>
							</g>
						</g>
					</g>
				</g>
				<g>
					<g>
						<g>
							<g>
								<g>
									<g>
										<g>
											<g>
												<path style="fill:#F07162;" d="M864.069,844.619c0,0,9.626,46.067,68.273,40.5l-8.041-26.673
													C924.302,858.446,888.063,872.469,864.069,844.619z"/>
											</g>
										</g>
									</g>
								</g>
							</g>
						</g>
					</g>
				</g>
				<g>
					<g>
						<g>
							<g>
								<g>
									<g>
										<g>
											<g>
												<path style="fill:#F07162;" d="M908.451,815.768c-0.242,0.042-0.494-0.073-0.616-0.301
													c-0.153-0.286-0.044-0.64,0.24-0.792l10.905-5.82l-8.352-26.586c-0.097-0.308,0.074-0.637,0.383-0.733
													c0.31-0.106,0.637,0.075,0.734,0.383l8.643,27.512l-11.762,6.277C908.571,815.738,908.511,815.758,908.451,815.768z"/>
											</g>
										</g>
									</g>
								</g>
							</g>
						</g>
					</g>
				</g>
				<g>
					<g>
						<g>
							<g>
								<g>
									<g>
										<polygon style="fill:#FE9F73;" points="842.715,858.972 839.993,819.208 849.878,818.609 856.631,857.729 										"/>
									</g>
								</g>
							</g>
						</g>
					</g>
				</g>
				<g>
					<g>
						<g>
							<g>
								<g>
									<path style="fill:#4C222E;" d="M844.546,766.195c0,0,87.293-20.45,89.164-42.051c1.871-21.6-18.965-18.564-18.965-18.564
										s-1.182-30.032-26.324-16.733c-25.141,13.299-74.695,20.681-84.311,47.768
										C794.495,763.703,844.546,766.195,844.546,766.195z"/>
								</g>
							</g>
						</g>
					</g>
				</g>
				<g>
					<g>
						<g>
							<g>
								<path style="fill:#4C222E;" d="M841.908,760.979l3.283,19.042c0,0,9.315,9.928,9.321,24.58c0,0,5.738,1.05,5.907-3.569
									c0.169-4.62-10.808-34.617-0.988-42.111c9.82-7.494-21.927-8.054-22.784-7.422c-0.858,0.631-17.055,12.775-14.773,11.973
									C824.157,762.669,841.908,760.979,841.908,760.979z"/>
							</g>
						</g>
					</g>
				</g>
				<g>
					<g>
						<g>
							<g>
								<g>
									<g>
										<g>
											<g>
												<path style="fill:#FE9F73;" d="M1063.424,1301.599c21.373-18.831-1.021-22-1.021-22
													c10.433-11.286,8.007-16.55,4.175-18.978c-2.805-1.777-6.33-1.973-9.426-0.77c-9.827,3.817-39.79,15.572-58.095,24.029
													c-13.015-0.922-8.864-22.861-3.042-34.103c2.999-5.792,3.206-15.359-10.917-5.724
													c-11.54,7.874-28.882,33.797-28.882,33.797l-72.533-6.97l10.806,99.954c0,0,82.798-1.158,95.274-1.246
													c12.476-0.088,54.255-14.314,66.874-25.298c22.898-19.932,8.495-20.948,8.495-20.948
													C1086.977,1300.408,1063.424,1301.599,1063.424,1301.599z"/>
											</g>
										</g>
									</g>
								</g>
							</g>
						</g>
					</g>
				</g>
				<g>
					<g>
						<g>
							<g>
								<g>
									<g>
										<g>
											<g>
												<g>
													<path style="fill:#F07162;" d="M1036.227,1296.101c-0.631,0.05-1.249-0.306-1.504-0.924
														c-0.316-0.766,0.049-1.642,0.815-1.958c10.735-4.43,25.867-14.754,26.017-14.858c0.683-0.466,1.616-0.291,2.086,0.39
														c0.468,0.684,0.293,1.618-0.39,2.086c-0.63,0.43-15.541,10.604-26.57,15.154
														C1036.532,1296.054,1036.379,1296.089,1036.227,1296.101z"/>
												</g>
											</g>
										</g>
									</g>
								</g>
							</g>
						</g>
					</g>
				</g>
				<g>
					<g>
						<g>
							<g>
								<g>
									<g>
										<g>
											<g>
												<g>
													<path style="fill:#F07162;" d="M1037.713,1315.041c-0.707,0.056-1.374-0.397-1.565-1.107
														c-0.214-0.8,0.26-1.622,1.06-1.837c13.647-3.665,25.244-11.65,25.359-11.73c0.684-0.474,1.618-0.302,2.088,0.375
														c0.472,0.682,0.305,1.616-0.375,2.088c-0.489,0.339-12.125,8.359-26.295,12.165
														C1037.895,1315.018,1037.804,1315.034,1037.713,1315.041z"/>
												</g>
											</g>
										</g>
									</g>
								</g>
							</g>
						</g>
					</g>
				</g>
				<g>
					<g>
						<g>
							<g>
								<g>
									<g>
										<g>
											<g>
												<g>
													<path style="fill:#F07162;" d="M1042.732,1336.378c-0.689,0.054-1.346-0.376-1.553-1.065
														c-0.237-0.792,0.213-1.629,1.007-1.867c11.69-3.504,21.938-11.222,22.041-11.301c0.658-0.502,1.6-0.371,2.102,0.289
														c0.5,0.659,0.371,1.6-0.289,2.102c-0.434,0.329-10.786,8.124-22.993,11.783
														C1042.941,1336.351,1042.837,1336.37,1042.732,1336.378z"/>
												</g>
											</g>
										</g>
									</g>
								</g>
							</g>
						</g>
					</g>
				</g>
				<g>
					<g>
						<g>
							<g>
								<g>
									<path style="fill:#E9516A;" d="M776.135,1227.068l150.136,9.614c0,0,14.755,46.536-2.978,140.888
										c-1.722,9.162-5.346,24.824-5.346,24.824s-74.107,5.907-85.738-18.165c-7.304-15.116,8.665-80.411,8.665-80.411
										L776.135,1227.068z"/>
								</g>
							</g>
						</g>
					</g>
				</g>
				<g>
					<g>
						<g>
							<g>
								<g>
									<path style="fill:#21111D;" d="M919.75,1404.79l-249.847-7.624l0.142-4.677l246.082,7.509
										c3.516-14.56,26.048-112.542,8.483-161.077l-185.388-11.871l0.299-4.67l188.395,12.064l0.537,1.397
										c20.464,53.054-7.057,162.498-8.239,167.131L919.75,1404.79z"/>
								</g>
							</g>
						</g>
					</g>
				</g>
			</g>
			<g>
				<g>
					<g>
						<g>
							<g>
								<path style="fill:#FBFDFA;" d="M900.891,825.247c0.337-0.094,21.956-2.322,21.956-2.322s-2.008,9.174-10.041,10.023
									C904.772,833.798,900.891,825.247,900.891,825.247z"/>
							</g>
						</g>
					</g>
				</g>
			</g>
			<g>
				<g>
					<g>
						<path style="fill:#91D3E2;" d="M1373.052,730.206c0,0-61.061,26.188-34.927,84.885c24.365,54.726,75.723,28.522,88.943,21.909
							S1373.052,730.206,1373.052,730.206z"/>
					</g>
				</g>
				<g>
					<g>
						<path style="fill:#52B6C6;" d="M1442.755,844.156c0,0,27.299,46.07,33.997,85.756c6.247,37.01,12.997,41.648,26.107,36.906
							c13.11-4.742,43.504-21.483,40.621-34.526c-2.883-13.043-26.611-77.604-58.682-107.079
							C1452.727,795.739,1442.755,844.156,1442.755,844.156z"/>
					</g>
				</g>
				<g>
					<g>
						<path style="fill:#52B6C6;" d="M1533.103,557.907c0,0-84.785,104.925-112.609,137.249l-11.966,34.983l37.275,82.575
							l38.533,7.634l175.166-11.714l-8.863-17.657l-52.642-75.694l-40.978-91.254l-20.214-57.444L1533.103,557.907z"/>
					</g>
				</g>
				<g>
					<g>
						<path style="fill:#D4EBF2;" d="M1420.494,695.157c0,0,5.716,76.987,63.842,125.192c0,0,3.833,4.883-0.384,9.697
							l-29.252,16.436c0,0-13.177,9.058-31.056-8.563c-17.879-17.621-52.164-58.783-53.212-114.071c0,0-0.621-14.877,15.816-22.045
							l21.686-10.417C1407.933,691.385,1417.645,687.094,1420.494,695.157z"/>
					</g>
				</g>
				<g>
					<g>
						<path style="fill:#91D3E2;" d="M1533.103,557.907c0,0,21.993-27.538,37.952-31.355s37.444,12.991,52.327,27.424
							c14.883,14.432,59.938,74.66,74.712,119.515c14.775,44.856,31.734,109.849,11.54,123.55
							c-20.194,13.701-50.132,11.593-50.132,11.593s-44.26-21.296-91.035-111.917
							C1521.693,606.096,1533.103,557.907,1533.103,557.907z"/>
					</g>
				</g>
				<g>
					<g>
						<path style="fill:#3B9DA8;" d="M1694.553,803.847c0,0,16.692-40.161-20.456-126.566
							c-58.488-136.04-116.038-143.562-116.038-143.562s-30.517,39.501,42.778,166.473
							C1661.232,804.816,1694.553,803.847,1694.553,803.847z"/>
					</g>
				</g>
				<g>
					<g>
						<path style="fill:#D4EBF2;" d="M1573.149,645.917c6.954,15.999,15.995,34.019,27.688,54.275
							c5.852,10.138,11.447,19.273,16.784,27.524c14.447-9.805,36.493-30.577,16.063-62.808
							C1614.755,635.044,1587.682,640.164,1573.149,645.917z"/>
					</g>
				</g>
				<g>
					<g>
						<path style="fill:#1D1D1B;" d="M1500.365,968.288c-4.208,1.128-7.387,0.9-10.086-0.675
							c-6.161-3.596-10.264-14.487-14.164-37.593c-5.302-31.417-23.375-66.573-31.106-80.575
							c-6.944-0.201-13.988-3.642-20.952-10.232c-21.914,10.636-40.776,13.21-56.069,7.652
							c-13.001-4.724-23.246-15.326-30.453-31.511c-9.891-22.217-8.656-42.371,3.672-59.905
							c9.533-13.558,23.103-21.554,28.894-24.535c-0.167-2.365-0.273-4.736-0.317-7.055c-0.006-0.139-0.447-15.389,16.204-22.65
							l21.665-10.407c0.23-0.103,5.259-2.284,9.338-0.523c1.63,0.703,2.87,1.932,3.698,3.659
							c28.186-32.847,111.071-135.396,111.912-136.437c0.901-1.129,22.308-27.77,38.304-31.577
							c16.229-3.881,37.74,12.86,52.927,27.588c15.105,14.648,60.048,74.759,74.876,119.777
							c16.205,49.198,31.318,110.698,11.289,124.287c-19.776,13.418-49.136,11.791-50.494,11.706L1485.46,820.92
							c0.575,1.057,1.308,2.885,1.067,5.035c16.881,16.114,30.775,41.165,39.475,59.386c9.966,20.873,16.589,39.94,18.108,46.812
							c1.658,7.501-7.005,15.582-14.565,21.04c-8.939,6.453-19.733,11.799-26.466,14.234
							C1502.128,967.77,1501.225,968.057,1500.365,968.288z M1424.3,837.657l0.326,0.313c6.951,6.68,13.942,10.109,20.776,10.191
							l0.375,0.005l0.182,0.328c7.659,13.835,26.052,49.453,31.429,81.311c3.778,22.384,7.828,33.357,13.542,36.692
							c2.928,1.709,6.429,1.623,11.709-0.285c12.565-4.545,42.976-21.266,40.21-33.78c-1.506-6.813-8.09-25.754-18.013-46.535
							c-8.694-18.207-22.593-43.263-39.438-59.233l-0.247-0.234l0.053-0.336c0.466-2.932-1.36-5.325-1.379-5.349l-0.745-0.959
							l1.211-0.082l175.21-11.716l0.044,0.003c0.297,0.021,29.953,1.932,49.724-11.483c8.753-5.939,11.131-22.58,7.067-49.461
							c-2.984-19.744-9.329-44.423-18.858-73.353c-14.763-44.821-59.509-104.67-74.549-119.254
							c-14.955-14.502-36.068-31.003-51.727-27.259c-0.161,0.039-0.326,0.08-0.489,0.124c-15.523,4.16-36.892,30.735-37.108,31.006
							c-0.85,1.052-85.112,105.305-112.625,137.267l-0.727,0.845l-0.371-1.051c-0.673-1.905-1.818-3.219-3.401-3.904
							c-3.556-1.539-8.243,0.488-8.29,0.508l-21.667,10.408c-15.839,6.907-15.474,20.847-15.45,21.437
							c0.047,2.449,0.163,4.943,0.345,7.426l0.031,0.429l-0.383,0.195c-9.439,4.786-55.362,31.28-32.353,82.958
							c7.058,15.852,17.055,26.223,29.713,30.823c15.045,5.467,33.706,2.844,55.465-7.796L1424.3,837.657z"/>
					</g>
				</g>
				<g>
					<g>
						<path style="fill:#1D1D1B;" d="M1423.734,838.905c-26.802-25.374-39.948-53.262-46.256-72.189
							c-6.839-20.52-7.343-35.256-7.347-35.402l1.291-0.038c0.005,0.145,0.508,14.729,7.298,35.081
							c6.263,18.773,19.311,46.436,45.902,71.61L1423.734,838.905z"/>
					</g>
				</g>
				<g>
					<g>
						<path style="fill:#1D1D1B;" d="M1483.912,820.836c-13.993-12.162-26.069-26.335-35.892-42.124
							c-7.857-12.63-14.298-26.316-19.143-40.679c-8.253-24.462-9.022-42.672-9.029-42.853l1.291-0.049
							c0.007,0.18,0.774,18.239,8.977,42.533c7.566,22.407,23.187,54.856,54.643,82.195L1483.912,820.836z"/>
					</g>
				</g>
				<g>
					<g>
						<path style="fill:#1D1D1B;" d="M1450.379,848.288c-2.755,0.738-4.575,1.098-4.863,1.154l-0.244-1.269
							c0.294-0.056,29.577-5.867,40.026-22.323l1.091,0.693C1478.168,839.488,1459.334,845.888,1450.379,848.288z"/>
					</g>
				</g>
				<g>
					<g>
						<path style="fill:#1D1D1B;" d="M1694.228,804.644c-1.87,0.501-7.981,0.999-19.85-8.022
							c-12.928-9.826-35.687-33.464-70.696-90.275c-17.315-28.098-30.522-54.657-39.254-78.939
							c-6.993-19.447-11.15-37.49-12.354-53.628c-2.059-27.583,5.126-39.883,5.433-40.393l1.107,0.665
							c-0.073,0.122-7.306,12.566-5.239,39.805c1.911,25.176,12.38,68.481,51.406,131.811c34.602,56.15,57.121,79.703,69.92,89.574
							c13.823,10.661,19.502,8.056,19.557,8.029l0.596,1.146C1694.813,804.44,1694.608,804.542,1694.228,804.644z"/>
					</g>
				</g>
				<g>
					<g>
						
							<rect x="1388.433" y="735.559" transform="matrix(0.5482 -0.8363 0.8363 0.5482 16.2291 1502.4539)" style="fill:#1D1D1B;" width="20.697" height="1.292"/>
					</g>
				</g>
				<g>
					<g>
						
							<rect x="1380.086" y="728.439" transform="matrix(0.5482 -0.8364 0.8364 0.5482 18.4622 1492.3448)" style="fill:#1D1D1B;" width="20.697" height="1.292"/>
					</g>
				</g>
				<g>
					<g>
						
							<rect x="1501.905" y="625.132" transform="matrix(0.5482 -0.8363 0.8363 0.5482 159.8478 1547.4657)" style="fill:#1D1D1B;" width="20.697" height="1.292"/>
					</g>
				</g>
				<g>
					<g>
						
							<rect x="1493.558" y="618.012" transform="matrix(0.5482 -0.8364 0.8364 0.5482 162.0913 1537.3545)" style="fill:#1D1D1B;" width="20.697" height="1.292"/>
					</g>
				</g>
			</g>
			<g>
				<polygon style="fill:#FE9F73;" points="1443.544,869.827 1486.879,871.92 1488.927,882.357 1491.656,891.396 1487.776,898.021 
					1459.038,900.815 1441.766,890.57 				"/>
			</g>
			<g>
				<g>
					<g>
						<g>
							<g>
								<g>
									<g>
										<g>
											<g>
												<g>
													<path style="fill:#F07162;" d="M1436.501,906.136c-0.831-0.293-1.44-1.343-1.422-2.561
														c0.021-1.403,0.868-2.494,1.891-2.439l46.389-5.2c4.388,0.218,8.099-4.091,8.441-9.815
														c0.183-3.065-0.541-6.027-2.042-8.338c-1.501-2.311-3.555-3.648-5.793-3.758l-42.693-2.125
														c-1.018-0.066-1.839-1.233-1.821-2.633c0.017-1.402,0.861-2.497,1.886-2.446l42.693,2.125
														c3.221,0.161,6.311,2.165,8.476,5.499c2.195,3.379,3.257,7.709,2.988,12.19c-0.502,8.379-5.863,14.697-12.206,14.38
														l-46.394,5.202C1436.759,906.209,1436.628,906.181,1436.501,906.136z"/>
												</g>
											</g>
										</g>
									</g>
								</g>
							</g>
						</g>
					</g>
				</g>
			</g>
			<g>
				<g>
					<g>
						<g>
							<g>
								<g>
									<g>
										<g>
											<g>
												<path style="fill:#FE9F73;" d="M1541.839,860.229c3.325,7.377,0.223,13.286-0.982,13.876l-37.389,18.281
													c-4.528,2.214-10.634-0.6-13.772-6.736c-3.438-6.723-2.109-14.359,2.775-16.747l37.224-18.2
													C1529.696,850.703,1538.513,852.852,1541.839,860.229z"/>
											</g>
										</g>
									</g>
								</g>
							</g>
						</g>
					</g>
				</g>
			</g>
			<g>
				<g>
					<g>
						<g>
							<g>
								<g>
									<g>
										<g>
											<g>
												<path style="fill:#FE9F73;" d="M1551.684,881.254c3.427,7.325,2.529,14.809,1.338,15.432l-39.806,20.775
													c-4.473,2.335-10.595-0.342-13.815-6.426c-3.529-6.667-2.325-14.368,2.498-16.884l40.821-21.304
													C1542.721,872.846,1548.257,873.928,1551.684,881.254z"/>
											</g>
										</g>
									</g>
								</g>
							</g>
						</g>
					</g>
				</g>
			</g>
			<g>
				<g>
					<g>
						<g>
							<g>
								<g>
									<g>
										<g>
											<g>
												<g>
													<path style="fill:#F07162;" d="M1544.975,874.497c0.62-0.573,0.753-1.726,0.268-2.79
														c-0.559-1.227-1.727-1.866-2.609-1.43l-40.179,19.889c-3.787,1.851-8.722-0.535-11.229-5.44
														c-1.342-2.627-1.845-5.506-1.411-8.106c0.434-2.599,1.73-4.553,3.663-5.496l36.845-18.015
														c0.873-0.444,1.147-1.78,0.591-3.004c-0.555-1.227-1.721-1.871-2.605-1.439l-36.845,18.015
														c-2.779,1.359-4.734,4.291-5.359,8.042c-0.634,3.802,0.098,8.012,2.062,11.851c3.671,7.18,10.836,10.709,16.309,8.032
														l40.184-19.891C1544.776,874.659,1544.881,874.584,1544.975,874.497z"/>
												</g>
											</g>
										</g>
									</g>
								</g>
							</g>
						</g>
					</g>
				</g>
			</g>
			<g>
				<g>
					<g>
						<g>
							<g>
								<g>
									<g>
										<g>
											<g>
												<path style="fill:#FE9F73;" d="M1527.658,835.865c3.542,7.273,2.447,14.809,1.251,15.419l-39.934,20.364
													c-4.397,2.242-10.405-0.245-13.662-6.156c-3.73-6.769-2.523-14.677,2.408-17.191l37.265-19.003
													C1519.132,827.186,1525.603,831.646,1527.658,835.865z"/>
											</g>
										</g>
									</g>
								</g>
							</g>
						</g>
					</g>
				</g>
			</g>
			<g>
				<g>
					<g>
						<g>
							<g>
								<g>
									<g>
										<g>
											<g>
												<g>
													<path style="fill:#F07162;" d="M1530.132,853.087c0.613-0.584,0.733-1.742,0.238-2.801
														c-0.57-1.221-1.74-1.844-2.615-1.393l-39.864,20.573c-3.757,1.916-8.702-0.4-11.251-5.278
														c-1.365-2.614-1.895-5.492-1.489-8.106c0.407-2.614,1.68-4.593,3.598-5.569l36.559-18.642
														c0.866-0.459,1.126-1.804,0.56-3.022c-0.566-1.221-1.735-1.848-2.613-1.402l-36.558,18.643
														c-2.758,1.406-4.677,4.377-5.263,8.148c-0.594,3.823,0.178,8.032,2.175,11.852c3.733,7.142,10.912,10.568,16.342,7.798
														l39.87-20.575C1529.934,853.252,1530.038,853.176,1530.132,853.087z"/>
												</g>
											</g>
										</g>
									</g>
								</g>
							</g>
						</g>
					</g>
				</g>
			</g>
			<g>
				<g>
					<g>
						<g>
							<g>
								<g>
									<g>
										<g>
											<g>
												<g>
													<path style="fill:#F07162;" d="M1552.494,898.129c0.636-0.587,0.755-1.781,0.237-2.856
														c-0.586-1.211-1.76-1.81-2.625-1.339l-38.44,20.993c-3.766,1.967-8.197-0.026-10.755-4.859
														c-1.381-2.605-1.924-5.481-1.533-8.101c0.389-2.622,1.647-4.612,3.559-5.612l40.82-21.303
														c0.875-0.448,1.117-1.813,0.542-3.031c-0.572-1.217-1.744-1.837-2.616-1.381l-40.821,21.303
														c-2.75,1.429-4.645,4.424-5.209,8.21c-0.57,3.834,0.226,8.041,2.24,11.845c3.752,7.092,10.427,10.173,15.871,7.33
														l38.463-21.005C1552.322,898.27,1552.413,898.205,1552.494,898.129z"/>
												</g>
											</g>
										</g>
									</g>
								</g>
							</g>
						</g>
					</g>
				</g>
			</g>
			<g>
				<g>
					<g>
						<g>
							<g>
								<g>
									<g>
										<g>
											<g>
												<path style="fill:#FE9F73;" d="M1558.711,906.392c3.249,6.794,2.482,13.796,1.382,14.394l-36.792,19.958
													c-4.134,2.243-9.846-0.172-12.892-5.809c-3.338-6.177-2.29-13.386,2.169-15.804l37.73-20.467
													C1550.309,898.665,1555.462,899.598,1558.711,906.392z"/>
											</g>
										</g>
									</g>
								</g>
							</g>
						</g>
					</g>
				</g>
			</g>
			<g>
				<g>
					<g>
						<g>
							<g>
								<g>
									<g>
										<g>
											<g>
												<g>
													<path style="fill:#F07162;" d="M1560.386,921.429c0.634-0.586,0.755-1.777,0.237-2.851
														c-0.581-1.212-1.757-1.816-2.622-1.345l-36.792,19.957c-3.405,1.848-7.946-0.173-10.341-4.602
														c-1.282-2.374-1.805-5.008-1.471-7.421c0.332-2.412,1.467-4.26,3.201-5.199l37.729-20.467
														c0.857-0.46,1.093-1.831,0.51-3.046c-0.581-1.212-1.757-1.816-2.621-1.345l-37.73,20.466
														c-2.569,1.392-4.325,4.245-4.822,7.827c-0.5,3.632,0.284,7.597,2.213,11.163c3.606,6.676,10.39,9.756,15.443,7.013
														l36.792-19.957C1560.212,921.57,1560.302,921.505,1560.386,921.429z"/>
												</g>
											</g>
										</g>
									</g>
								</g>
							</g>
						</g>
					</g>
				</g>
			</g>
		</g>
		<g>
			<rect x="666.684" y="1500.038" style="fill:#230C1E;" width="465.366" height="28.017"/>
		</g>
		<g>
			<rect x="646.618" y="1528.055" style="fill:#5B2750;" width="525.077" height="91.571"/>
		</g>
	</g>
	<g>
		<g>
			<g>
				<g>
					<g>
						<g>
							<path style="fill:#ED2B47;" d="M2298.114,1466.19c-11.405,0.033-19.846-3.291-25.522-9.99
								c-13.594-16.042-3.606-44.245,7.168-65.079c11.819-22.86,23.597-40.973,35.006-53.835
								c23.476-26.468,41.972-25.647,53.354-20.307l0,0c35.964,16.889,53.415,37.817,51.868,62.205
								c-2.308,36.368-48.395,67.473-90.239,80.982C2317.396,1464.154,2306.879,1466.165,2298.114,1466.19z M2354.835,1333.535
								c-14.577,0.042-36.047,24.531-57.767,66.535c-12.171,23.541-13.597,38.826-9.609,43.532c1.521,1.794,8.636,6.953,36.303-1.98
								c36.503-11.785,75.202-38.823,76.78-63.672c1.233-19.438-21.454-34.294-40.705-43.333
								C2358.28,1333.887,2356.608,1333.53,2354.835,1333.535z"/>
						</g>
					</g>
				</g>
			</g>
		</g>
		<g>
			<g>
				<g>
					<g>
						<g>
							<path style="fill:#ED2B47;" d="M2247.537,1466.025c-8.767,0.025-19.292-1.923-31.67-5.84
								c-41.921-13.267-88.189-44.105-90.707-80.459c-1.688-24.378,15.641-45.408,51.507-62.505l0,0
								c11.354-5.408,29.844-6.334,53.471,19.998c11.484,12.796,23.366,30.84,35.318,53.631
								c10.894,20.771,21.046,48.916,7.545,65.037C2267.365,1462.617,2258.94,1465.992,2247.537,1466.025z M2185.053,1334.813
								c-19.198,9.15-41.799,24.137-40.453,43.568c1.721,24.839,40.577,51.653,77.147,63.226c27.723,8.773,34.805,3.573,36.314,1.77
								c3.96-4.729,2.446-20.006-9.861-43.476C2223.565,1352.928,2199.369,1327.985,2185.053,1334.813L2185.053,1334.813z"/>
						</g>
					</g>
				</g>
			</g>
		</g>
		<g>
			<g>
				<g>
					<g>
						<g>
							
								<rect x="2070.62" y="1456.344" transform="matrix(1 -0.0029 0.0029 1 -4.7393 6.6015)" style="fill:#FEC786;" width="411.379" height="365.669"/>
						</g>
					</g>
				</g>
			</g>
		</g>
		<g>
			<g>
				<g>
					<g>
						<g>
							
								<rect x="2057.979" y="1456.345" transform="matrix(1 -0.0029 0.0029 1 -4.3672 6.5995)" style="fill:#F7597F;" width="435.917" height="108.979"/>
						</g>
					</g>
				</g>
			</g>
		</g>
		<g>
			<g>
				<g>
					<path d="M2055.612,1568.496l-0.323-111.512c-0.004-1.399,1.127-2.536,2.526-2.541c0.002,0,0.005,0,0.007,0
						c1.396,0,2.529,1.129,2.533,2.526l0.308,106.446l433.382-1.255c0.002,0,0.005,0,0.007,0c1.396,0,2.529,1.129,2.533,2.526
						c0.004,1.399-1.127,2.536-2.526,2.541L2055.612,1568.496z"/>
				</g>
			</g>
		</g>
		<g>
			<g>
				<g>
					<path d="M2071.15,1825.142c-1.396,0-2.529-1.129-2.533-2.526l-0.743-256.689c-0.004-1.399,1.127-2.536,2.526-2.541
						c0.002,0,0.005,0,0.007,0c1.396,0,2.529,1.129,2.533,2.526l0.743,256.689c0.004,1.399-1.126,2.536-2.526,2.541
						C2071.155,1825.142,2071.153,1825.142,2071.15,1825.142z"/>
				</g>
			</g>
		</g>
		<g>
			<g>
				<g>
					<path d="M2482.304,1746.929c-1.396,0-2.529-1.129-2.533-2.526l-0.52-179.667c-0.004-1.399,1.126-2.536,2.526-2.541
						c0.002,0,0.005,0,0.008,0c1.396,0,2.529,1.129,2.533,2.526l0.52,179.667c0.004,1.399-1.126,2.536-2.526,2.541
						C2482.309,1746.929,2482.306,1746.929,2482.304,1746.929z"/>
				</g>
			</g>
		</g>
		<g>
			<g>
				<g>
					<path d="M2459.371,1506.007c-0.647,0-1.295-0.247-1.789-0.74l-26.271-26.207c-0.99-0.988-0.992-2.592-0.004-3.583
						c0.988-0.991,2.592-0.992,3.583-0.005l26.271,26.207c0.99,0.988,0.992,2.592,0.004,3.583
						C2460.67,1505.758,2460.021,1506.007,2459.371,1506.007z"/>
				</g>
			</g>
		</g>
		<g>
			<g>
				<g>
					<path d="M2451.982,1529.504c-0.647,0-1.295-0.247-1.79-0.74l-26.271-26.206c-0.99-0.988-0.992-2.592-0.004-3.583
						c0.987-0.991,2.591-0.992,3.583-0.005l26.271,26.206c0.99,0.988,0.992,2.592,0.004,3.583
						C2453.281,1529.256,2452.631,1529.504,2451.982,1529.504z"/>
				</g>
			</g>
		</g>
		<g>
			<g>
				<g>
					<g>
						<g>
							
								<rect x="2264.762" y="1421.934" transform="matrix(0.0029 1 -1 0.0029 3906.7295 -639.7017)" style="fill:#ED2B47;" width="18.765" height="434.503"/>
						</g>
					</g>
				</g>
			</g>
		</g>
		<g>
			<g>
				<g>
					<g>
						<g>
							
								<rect x="2264.762" y="1456.351" transform="matrix(1 -0.0029 0.0029 1 -4.7426 6.5999)" style="fill:#ED2B47;" width="18.765" height="365.669"/>
						</g>
					</g>
				</g>
			</g>
		</g>
		<g style="opacity:0.5;">
			<g>
				<g>
					<g>
						<g>
							
								<rect x="2347.435" y="1563.457" transform="matrix(1 -0.0029 0.0029 1 -4.8938 7.0035)" style="fill:#F7597F;" width="134.604" height="258.161"/>
						</g>
					</g>
				</g>
			</g>
		</g>
		<g style="opacity:0.5;">
			<g>
				<g>
					<g>
						<g>
							
								<rect x="2342.645" y="1455.935" transform="matrix(1 -0.0029 0.0029 1 -4.3648 7.0109)" style="fill:#F7597F;" width="151.25" height="108.98"/>
						</g>
					</g>
				</g>
			</g>
		</g>
	</g>
	<g>
		<g>
			<g>
				<g>
					<g>
						<g>
							<path style="fill:#FEC369;" d="M1920.022,1527.665c-11.757,0.034-20.459-3.393-26.31-10.299
								c-14.014-16.537-3.717-45.61,7.389-67.087c12.184-23.566,24.325-42.237,36.086-55.496
								c24.2-27.284,43.267-26.439,55.001-20.934l0,0c37.074,17.41,55.063,38.984,53.469,64.125
								c-2.38,37.49-49.889,69.555-93.024,83.481C1939.899,1525.567,1929.057,1527.639,1920.022,1527.665z M1978.493,1390.917
								c-15.026,0.044-37.159,25.288-59.549,68.588c-12.547,24.267-14.016,40.025-9.906,44.875
								c1.568,1.849,8.903,7.167,37.423-2.042c37.629-12.148,77.523-40.021,79.149-65.636c1.271-20.038-22.116-35.352-41.961-44.67
								C1982.044,1391.28,1980.32,1390.912,1978.493,1390.917z"/>
						</g>
					</g>
				</g>
			</g>
		</g>
		<g>
			<g>
				<g>
					<g>
						<g>
							<path style="fill:#FEC369;" d="M1867.884,1536.308c-9.037,0.026-19.888-1.983-32.647-6.02
								c-43.215-13.677-90.911-45.466-93.506-82.942c-1.74-25.131,16.124-46.809,53.096-64.433l0,0
								c11.705-5.575,30.765-6.529,55.121,20.615c11.838,13.191,24.087,31.791,36.407,55.286
								c11.231,21.412,21.695,50.425,7.778,67.044C1888.324,1532.795,1879.639,1536.274,1867.884,1536.308z M1803.472,1401.046
								c-19.791,9.433-43.089,24.882-41.701,44.912c1.774,25.605,41.829,53.247,79.528,65.177
								c28.579,9.044,35.879,3.683,37.435,1.825c4.083-4.875,2.521-20.623-10.166-44.818
								C1843.172,1419.721,1818.23,1394.009,1803.472,1401.046L1803.472,1401.046z"/>
						</g>
					</g>
				</g>
			</g>
		</g>
		<g>
			<g>
				<g>
					<g>
						<g>
							
								<rect x="1643.377" y="1487.797" transform="matrix(1 -0.0029 0.0029 1 -4.79 5.5007)" style="fill:#7FC6A6;" width="505.778" height="336.612"/>
						</g>
					</g>
				</g>
			</g>
		</g>
		<g>
			<g>
				<g>
					<g>
						<g>
							
								<rect x="1627.901" y="1487.798" transform="matrix(1 -0.0029 0.0029 1 -4.3941 5.4982)" style="fill:#47B580;" width="535.949" height="63.745"/>
						</g>
					</g>
				</g>
			</g>
		</g>
		<g>
			<g>
				<g>
					<path d="M1643.838,1818.418c-1.625,0-2.945-1.315-2.95-2.941l-0.762-263.193c-0.005-1.629,1.312-2.954,2.941-2.958
						c0.003,0,0.006,0,0.009,0c1.626,0,2.945,1.315,2.95,2.941l0.763,263.193c0.005,1.629-1.312,2.953-2.941,2.958
						C1643.843,1818.418,1643.84,1818.418,1643.838,1818.418z"/>
				</g>
			</g>
		</g>
		<g>
			<g>
				<g>
					<path d="M1625.053,1555.277l-0.194-66.694c-0.005-1.629,1.312-2.953,2.941-2.958c0.003,0,0.006,0,0.009,0
						c1.626,0,2.945,1.315,2.95,2.941l0.177,60.795l532.996-1.544c0.003,0,0.006,0,0.009,0c1.625,0,2.945,1.315,2.95,2.941
						c0.005,1.629-1.312,2.953-2.941,2.958L1625.053,1555.277z"/>
				</g>
			</g>
		</g>
		<g>
			<g>
				<g>
					<path d="M2149.457,1763.06c-1.626,0-2.945-1.315-2.95-2.941l-0.606-209.3c-0.005-1.629,1.313-2.954,2.941-2.958
						c0.003,0,0.006,0,0.009,0c1.626,0,2.945,1.315,2.95,2.941l0.606,209.3c0.005,1.629-1.312,2.954-2.941,2.958
						C2149.463,1763.06,2149.46,1763.06,2149.457,1763.06z"/>
				</g>
			</g>
		</g>
		<g>
			<g>
				<g>
					<path d="M2070.82,1752.578c-0.56,0-1.125-0.159-1.626-0.491l-42.208-27.967c-1.358-0.9-1.729-2.73-0.83-4.089
						c0.899-1.358,2.732-1.73,4.088-0.83l42.208,27.967c1.358,0.9,1.729,2.73,0.83,4.089
						C2072.715,1752.113,2071.776,1752.578,2070.82,1752.578z"/>
				</g>
			</g>
		</g>
		<g>
			<g>
				<g>
					<path d="M2065.78,1772.663c-0.56,0-1.125-0.159-1.627-0.491l-42.208-27.967c-1.358-0.9-1.729-2.73-0.83-4.089
						c0.9-1.358,2.731-1.73,4.089-0.83l42.208,27.967c1.358,0.9,1.729,2.73,0.83,4.089
						C2067.675,1772.198,2066.736,1772.663,2065.78,1772.663z"/>
				</g>
			</g>
		</g>
		<g>
			<g>
				<g>
					<g>
						<g>
							
								<rect x="1885.636" y="1395.782" transform="matrix(0.0029 1 -1 0.0029 3544.8657 -242.9732)" style="fill:#FEC369;" width="17.273" height="520.645"/>
						</g>
					</g>
				</g>
			</g>
		</g>
		<g>
			<g>
				<g>
					<g>
						<g>
							
								<rect x="1885.636" y="1487.801" transform="matrix(1 -0.0029 0.0029 1 -4.805 5.5121)" style="fill:#FEC369;" width="17.273" height="336.611"/>
						</g>
					</g>
				</g>
			</g>
		</g>
		<g style="opacity:0.5;">
			<g>
				<g>
					<g>
						<g>
							
								<rect x="1986.311" y="1551.05" transform="matrix(1 -0.0029 0.0029 1 -4.8796 5.997)" style="fill:#4CB7D8;" width="162.939" height="272.87"/>
						</g>
					</g>
				</g>
			</g>
		</g>
		<g style="opacity:0.5;">
			<g>
				<g>
					<g>
						<g>
							
								<rect x="1980.665" y="1487.291" transform="matrix(1 -0.0029 0.0029 1 -4.3925 6.0099)" style="fill:#3AA1C9;" width="183.183" height="63.745"/>
						</g>
					</g>
				</g>
			</g>
		</g>
	</g>
	<g>
		<g>
			<g>
				<path style="fill:#E9516A;" d="M2249.028,376.633c0,32.395-11.22,62.169-29.995,85.649
					c-21.616,27.039-53.24,45.727-89.261,50.439c-5.892,0.784-11.904,1.18-18.01,1.18c-0.355,0-0.717,0-1.073-0.007
					c-5.543-0.04-11.012-0.409-16.382-1.099c-1.448-0.175-2.882-0.382-4.31-0.61c-35.237-5.61-65.995-24.633-86.895-51.658
					c-17.943-23.199-28.614-52.302-28.614-83.893c0-75.815,61.458-137.273,137.273-137.273
					C2187.571,239.36,2249.028,300.818,2249.028,376.633z"/>
			</g>
			<g>
				<g>
					<g>
						<g>
							<g>
								<g>
									<path style="fill:#2F0E1B;" d="M2085.861,363.194c0,0,5.871,52.751,13.75,53.28c7.879,0.528-5.439,62.307-26.32,32.04
										c-7.316-10.604-6.99-80.004,10.469-94.847C2101.218,338.824,2085.861,363.194,2085.861,363.194z"/>
								</g>
							</g>
						</g>
					</g>
					<g>
						<g>
							<g>
								<g>
									<g>
										<path style="fill:#FE9F73;" d="M2083,349.948c0,0-7.251,49.837-0.723,58.706c0,0,3.189,4.717,10.972,4.969l-0.611,29.289
											l35.214-4.026l1.177-83.299c0,0-10.037-20.593-10.049-19.744C2118.967,336.691,2083,349.948,2083,349.948z"/>
									</g>
								</g>
							</g>
						</g>
					</g>
					<g>
						<g>
							<g>
								<g>
									<g>
										<path style="fill:#FB554B;" d="M2093.722,391.533c0.104,0.001,0.199-0.099,0.224-0.249
											c0.028-0.171-0.047-0.341-0.168-0.381c-1.449-0.46-2.33-2.998-2.583-3.826c2.089-1.526,3.378-3.531,3.833-5.962
											c0.742-3.962-0.993-7.579-1.068-7.731c-0.07-0.144-0.21-0.179-0.314-0.079c-0.103,0.101-0.13,0.299-0.059,0.444
											c0.017,0.035,1.694,3.538,1.003,7.214c-0.435,2.314-1.707,4.225-3.782,5.679l-0.183,0.128l0.069,0.268
											c0.04,0.157,1.016,3.863,2.979,4.486C2093.69,391.53,2093.706,391.533,2093.722,391.533z"/>
									</g>
								</g>
							</g>
						</g>
					</g>
					<g>
						<g>
							<g>
								<g>
									<g>
										<path style="fill:#FB554B;" d="M2093.107,423.585l0.141-9.963c0,0,16.857-0.753,27.281-7.118
											C2120.529,406.504,2106.315,419.79,2093.107,423.585z"/>
									</g>
								</g>
							</g>
						</g>
					</g>
					<g>
						<g>
							<g>
								<g>
									<g>
										<path style="fill:#2F0E1B;" d="M2117.015,375.013c0.159,0.002,0.319-0.055,0.444-0.172c0.257-0.24,0.271-0.643,0.031-0.9
											c-0.08-0.085-8.125-8.549-15.674-2.642c-0.277,0.216-0.326,0.617-0.109,0.893c0.217,0.277,0.617,0.326,0.895,0.109
											c6.627-5.183,13.661,2.192,13.957,2.508C2116.682,374.942,2116.848,375.01,2117.015,375.013z"/>
									</g>
								</g>
							</g>
						</g>
					</g>
					<g>
						<g>
							<g>
								<g>
									<g>
										<path style="fill:#2F0E1B;" d="M2090.818,373.309c0.178,0.003,0.357-0.069,0.485-0.213
											c0.234-0.262,0.211-0.665-0.051-0.899c-0.237-0.21-5.838-5.141-9.477-2.107c-0.27,0.225-0.307,0.626-0.082,0.896
											c0.225,0.271,0.627,0.309,0.897,0.082c2.796-2.328,7.763,2.036,7.813,2.08
											C2090.522,373.254,2090.67,373.307,2090.818,373.309z"/>
									</g>
								</g>
							</g>
						</g>
					</g>
					<g>
						<g>
							<g>
								<g>
									<g>
										<path style="fill:#010103;" d="M2104.229,378.38c-0.014,0.98,0.769,1.785,1.749,1.799c0.98,0.014,1.785-0.769,1.799-1.749
											c0.014-0.98-0.769-1.785-1.749-1.799C2105.048,376.617,2104.242,377.4,2104.229,378.38z"/>
									</g>
								</g>
							</g>
						</g>
					</g>
					<g>
						<g>
							<g>
								<g>
									<g>
										<path style="fill:#010103;" d="M2083.461,378.144c-0.014,0.98,0.769,1.785,1.749,1.799
											c0.98,0.014,1.785-0.769,1.799-1.749c0.014-0.98-0.769-1.785-1.749-1.799
											C2084.28,376.382,2083.474,377.165,2083.461,378.144z"/>
									</g>
								</g>
							</g>
						</g>
					</g>
					<g>
						<g>
							<g>
								<g>
									<g>
										<path style="fill:#FBFDFA;" d="M2102.462,394.489c-0.199-0.011-12.542,1.364-12.542,1.364s2.232,4.88,6.822,4.381
											S2102.462,394.489,2102.462,394.489z"/>
									</g>
								</g>
							</g>
						</g>
					</g>
					<g>
						<g>
							<g>
								<g>
									<path style="fill:#FC8759;" d="M2098.267,350.916l8.55-11.862c0,0-13.739,8.596-12.598,8.95
										C2095.361,348.358,2098.267,350.916,2098.267,350.916z"/>
								</g>
							</g>
						</g>
					</g>
					<g>
						<g>
							<g>
								<g>
									<path style="fill:#2F0E1B;" d="M2123.921,345.294c0,0-2.453,18.584-46.971,22.336c0,0-10.344-27.501,21.984-36.694
										c32.329-9.194,35.264,15.599,34.61,15.371C2132.891,346.078,2123.921,345.294,2123.921,345.294z"/>
								</g>
							</g>
						</g>
					</g>
					<g>
						<g>
							<g>
								<g>
									<path style="fill:#2F0E1B;" d="M2117.203,355.713c0,0,7.111,12.245,10.929,21.06c0,0-13.751,77.825,16.219,73.463
										l5.357-0.073c26.509-0.363,8.16-57.736,7.71-88.187c-0.282-19.065-23.426-38.421-38.485-26.806
										C2103.874,346.785,2117.203,355.713,2117.203,355.713z"/>
								</g>
							</g>
						</g>
					</g>
					<g>
						<g>
							<g>
								<g>
									<g>
										<g>
											<path style="fill:#FE9F73;" d="M2121.627,386.276c-0.078,5.493,4.312,10.009,9.805,10.086
												c5.493,0.078,10.009-4.312,10.086-9.805c0.077-5.493-4.313-10.009-9.805-10.086
												C2126.22,376.393,2121.705,380.783,2121.627,386.276z"/>
										</g>
									</g>
								</g>
							</g>
						</g>
						<g>
							<g>
								<g>
									<g>
										<g>
											<path style="fill:#FB554B;" d="M2132.222,392.565c2.088,0.029,3.504-1.519,3.985-3.08
												c0.569-1.846-0.029-3.658-1.523-4.615c-2.127-1.362-4.089-0.611-5.159,0.04c0.443-1.052,1.105-1.818,1.978-2.28
												c1.964-1.042,4.357-0.227,4.381-0.218c0.167,0.058,0.348-0.03,0.406-0.196c0.058-0.166-0.03-0.348-0.196-0.406
												c-0.109-0.038-2.683-0.915-4.89,0.257c-1.275,0.677-2.153,1.893-2.609,3.614l-0.292,1.104l0.822-0.794
												c0.1-0.097,2.477-2.341,5.217-0.585c1.514,0.97,1.624,2.702,1.258,3.89c-0.384,1.247-1.508,2.679-3.418,2.629
												c-0.172-0.007-0.322,0.133-0.327,0.31c-0.005,0.176,0.134,0.322,0.309,0.327
												C2132.182,392.564,2132.202,392.564,2132.222,392.565z"/>
										</g>
									</g>
								</g>
							</g>
						</g>
					</g>
					<g>
						<g>
							<g>
								<path style="fill:#2F0E1B;" d="M2081.008,341.523c0,0-15.435,16.29-11.893,63.14l10.64-46.223L2081.008,341.523z"/>
							</g>
						</g>
					</g>
				</g>
				<g>
					<g>
						<g>
							<path style="fill:#7FC6A6;" d="M2129.772,512.72c-5.892,0.784-11.904,1.18-18.01,1.18c-0.355,0-0.717,0-1.073-0.007
								c-5.543-0.04-11.012-0.409-16.382-1.099l0.791-3.345l12.266-51.518l3.324-13.955l0.764-3.217l1.341-5.624h58.448
								c6.207,0,14.752,4.089,15.121,4.27c7.936,4.223,20.128,12.3,32.669,22.877
								C2197.417,489.321,2165.793,508.008,2129.772,512.72z"/>
						</g>
					</g>
					<g>
						<g>
							<path style="fill:#7FC6A6;" d="M2110.689,435.135v78.758c-5.543-0.04-11.012-0.409-16.382-1.099
								c-1.448-0.175-2.882-0.382-4.31-0.61c-35.237-5.61-65.995-24.633-86.895-51.658c13.218-9.552,26-16.851,34.017-21.121
								c0.362-0.181,8.915-4.27,15.115-4.27H2110.689z"/>
						</g>
					</g>
					<g>
						<g>
							<g>
								<g>
									<g>
										<path style="fill:#FE9F73;" d="M2076.834,435.133h73.943c0,0-13.366,23.148-38.917,23.048
											C2100.141,458.135,2087.611,453.826,2076.834,435.133z"/>
									</g>
								</g>
							</g>
						</g>
					</g>
					<g>
						<g>
							<g>
								<g>
									<g>
										<g>
											<path style="fill:#0D060E;" d="M2025.94,464.522c0.348,0,0.691-0.165,0.906-0.472
												c8.311-11.938,15.403-11.965,15.399-11.963c0.001,0,0.003,0,0.004,0c0.607,0,1.1-0.491,1.102-1.098
												c0.002-0.609-0.489-1.104-1.098-1.107c-0.001,0-0.003,0-0.005,0c-0.404,0-8.345,0.173-17.213,12.907
												c-0.347,0.5-0.224,1.187,0.275,1.535C2025.503,464.459,2025.722,464.522,2025.94,464.522z"/>
										</g>
									</g>
								</g>
							</g>
						</g>
						<g>
							<g>
								<g>
									<g>
										<g>
											<path style="fill:#0D060E;" d="M2028.304,475.735c0.405,0,0.795-0.224,0.987-0.611
												c6.366-12.806,13.421-14.077,13.491-14.089c0.598-0.096,1.01-0.657,0.919-1.255c-0.091-0.598-0.638-1.013-1.242-0.926
												c-0.332,0.047-8.203,1.328-15.142,15.287c-0.271,0.545-0.049,1.207,0.496,1.478
												C2027.972,475.698,2028.139,475.735,2028.304,475.735z"/>
										</g>
									</g>
								</g>
							</g>
						</g>
					</g>
				</g>
			</g>
		</g>
		<g>
			<g>
				<path style="fill:#FFFFFF;" d="M2111.762,518.705c-0.386,0-0.779-0.001-1.166-0.008c-5.649-0.041-11.354-0.424-16.902-1.138
					c-1.382-0.166-2.852-0.374-4.456-0.631c-35.733-5.69-67.675-24.677-89.937-53.464c-19.377-25.051-29.619-55.078-29.619-86.832
					c0-37.951,14.779-73.63,41.613-100.465c26.835-26.835,62.514-41.613,100.465-41.613c37.948,0,73.625,14.779,100.459,41.614
					c26.834,26.835,41.613,62.514,41.613,100.465c0,32.593-10.736,63.247-31.048,88.65c-23.097,28.891-55.909,47.43-92.39,52.202
					C2124.317,518.294,2118.044,518.705,2111.762,518.705z M2111.762,244.165c-73.043,0-132.468,59.425-132.468,132.468
					c0,29.607,9.547,57.599,27.61,80.953c20.759,26.845,50.538,44.549,83.85,49.853c1.484,0.237,2.833,0.429,4.129,0.584
					c5.203,0.669,10.52,1.026,15.842,1.065c0.382,0.008,0.709,0.008,1.037,0.007c5.86,0,11.706-0.383,17.376-1.138
					c34.016-4.45,64.604-21.735,86.142-48.676c18.935-23.681,28.944-52.26,28.944-82.648
					C2244.224,303.59,2184.802,244.165,2111.762,244.165z"/>
			</g>
		</g>
	</g>
	<g>
		<g>
			<g>
				<path style="fill:#FEC786;" d="M2244.267,1123.363c0,21.214-4.179,41.448-11.76,59.924c-0.185,0.432-0.363,0.863-0.54,1.295
					c-0.039,0.093-0.077,0.185-0.116,0.27c-7.203,17.027-17.296,32.519-29.673,45.867c-0.37,0.394-0.74,0.787-1.11,1.172
					c-0.393,0.424-0.787,0.833-1.195,1.249c-28.702,29.688-68.954,48.149-113.526,48.149c-24.36,0-47.432-5.513-68.037-15.361
					c-3.855-1.843-7.626-3.84-11.297-5.984c-0.625-0.362-1.249-0.725-1.866-1.102c-1.673-1.003-3.323-2.036-4.958-3.1
					c-0.563-0.37-1.118-0.74-1.673-1.11c-11.374-7.627-21.7-16.695-30.722-26.936c-3.277-3.717-6.377-7.58-9.292-11.598
					c-6.323-8.714-11.79-18.099-16.248-28.023c-8.883-19.749-13.826-41.649-13.826-64.713c0-87.214,70.705-157.919,157.919-157.919
					C2173.571,965.443,2244.267,1036.148,2244.267,1123.363z"/>
			</g>
			<g>
				<g>
					<g>
						<g>
							<g>
								<path style="fill:#2D0F28;" d="M2036.257,1050.595c0,0-12.074-27.803,19.744-50.803
									c31.819-23.001,36.724,16.45,48.974,20.197c12.25,3.748,34.461-0.519,42.498,22.483c8.037,23.002,3.258,39.795,16.15,43.497
									c12.893,3.702,54.99,36.939,43.579,79.861c-11.411,42.922-53.288,40.111-53.288,40.111s-164.582,5.103-175.199-37.81
									c-10.617-42.913,5.498-61.242,26.54-75.447C2018.189,1083.954,2044.054,1076.884,2036.257,1050.595z"/>
							</g>
						</g>
					</g>
					<g>
						<g>
							<g>
								<g>
									<g>
										<path style="fill:#FE9F73;" d="M2053.144,1064.183c0,0-14.54,58.364-5.856,72.453c0,0,4.195,7.458,15.82,8.794
											l-3.578,37.054l52.289,5.049l11.738-121.567L2053.144,1064.183z"/>
									</g>
								</g>
							</g>
						</g>
						<g>
							<g>
								<g>
									<g>
										<path style="fill:#FB554B;" d="M2065.735,1112.326c0.22,0.021,0.432-0.112,0.502-0.332
											c0.079-0.252-0.06-0.521-0.312-0.601c-3.004-0.953-4.574-4.918-5.011-6.205c4.582-1.905,7.532-4.674,8.772-8.234
											c2.021-5.802-1.226-11.54-1.366-11.781c-0.132-0.229-0.424-0.307-0.653-0.176c-0.229,0.132-0.308,0.424-0.176,0.654
											c0.032,0.055,3.168,5.61,1.289,10.994c-1.183,3.389-4.087,6.02-8.632,7.821l-0.4,0.159l0.115,0.414
											c0.068,0.244,1.702,5.975,5.773,7.267C2065.669,1112.316,2065.702,1112.323,2065.735,1112.326z"/>
									</g>
								</g>
							</g>
						</g>
						<g>
							<g>
								<g>
									<g>
										<path style="fill:#F07162;" d="M2061.669,1160.334l1.439-14.905c0,0,25.34,0.951,41.737-7.297
											C2104.845,1138.132,2081.919,1156.278,2061.669,1160.334z"/>
									</g>
								</g>
							</g>
						</g>
						<g>
							<g>
								<g>
									<g>
										<path style="fill:#2F0E1B;" d="M2097.354,1090.029c0.238,0.023,0.484-0.043,0.685-0.203
											c0.415-0.328,0.485-0.929,0.158-1.344c-0.11-0.137-11.115-13.806-23.149-5.889c-0.442,0.29-0.564,0.884-0.274,1.325
											c0.291,0.441,0.884,0.564,1.326,0.274c10.564-6.946,20.191,4.967,20.595,5.477
											C2096.863,1089.882,2097.104,1090.005,2097.354,1090.029z"/>
									</g>
								</g>
							</g>
						</g>
						<g>
							<g>
								<g>
									<g>
										<path style="fill:#2F0E1B;" d="M2064.439,1084.751c0.267,0.026,0.543-0.06,0.752-0.26
											c0.383-0.364,0.398-0.969,0.034-1.353c-0.328-0.345-8.11-8.421-13.934-4.325c-0.432,0.304-0.537,0.901-0.233,1.333
											c0.304,0.434,0.901,0.539,1.334,0.233c4.476-3.142,11.377,4.006,11.446,4.078
											C2064.003,1084.632,2064.218,1084.73,2064.439,1084.751z"/>
									</g>
								</g>
							</g>
						</g>
						<g>
							<g>
								<g>
									<g>
										<path style="fill:#010103;" d="M2052.823,1091.086c-0.142,1.466,0.932,2.768,2.398,2.91
											c1.466,0.142,2.769-0.932,2.91-2.397c0.141-1.466-0.932-2.768-2.398-2.91
											C2054.267,1088.547,2052.965,1089.62,2052.823,1091.086z"/>
									</g>
								</g>
							</g>
						</g>
						<g>
							<g>
								<g>
									<g>
										<path style="fill:#010103;" d="M2079.249,1093.229c-0.141,1.466,0.932,2.768,2.398,2.91
											c1.466,0.142,2.769-0.932,2.91-2.397c0.142-1.466-0.932-2.769-2.397-2.91
											C2080.693,1090.689,2079.39,1091.763,2079.249,1093.229z"/>
									</g>
								</g>
							</g>
						</g>
						<g>
							<g>
								<g>
									<g>
										<path style="fill:#FE9F73;" d="M2108.984,1107.971c-0.794,8.218,5.224,15.522,13.442,16.316
											c8.218,0.793,15.522-5.225,16.316-13.442c0.793-8.218-5.225-15.522-13.443-16.316
											C2117.082,1093.736,2109.777,1099.754,2108.984,1107.971z"/>
									</g>
								</g>
							</g>
						</g>
						<g>
							<g>
								<g>
									<g>
										<path style="fill:#FB554B;" d="M2124.076,1118.696c3.123,0.302,5.435-1.843,6.348-4.122
											c1.08-2.695,0.408-5.481-1.711-7.099c-3.018-2.302-6.049-1.419-7.733-0.576c0.792-1.522,1.879-2.586,3.243-3.172
											c3.069-1.318,6.553,0.198,6.588,0.214c0.243,0.107,0.524-0.003,0.632-0.243c0.108-0.241-0.001-0.524-0.243-0.632
											c-0.158-0.071-3.905-1.701-7.355-0.218c-1.994,0.857-3.459,2.569-4.354,5.092l-0.574,1.617l1.329-1.087
											c0.161-0.133,3.998-3.2,7.886-0.233c2.148,1.639,2.099,4.247,1.403,5.982c-0.729,1.82-2.588,3.826-5.443,3.517
											c-0.258-0.032-0.499,0.159-0.529,0.423c-0.029,0.263,0.16,0.499,0.423,0.528
											C2124.017,1118.689,2124.047,1118.693,2124.076,1118.696z"/>
									</g>
								</g>
							</g>
						</g>
					</g>
					<g>
						<g>
							<g>
								<path style="fill:#FE9F73;" d="M2053.144,1064.183c0,0,6.737-22.464,37.622-22.026
									c30.885,0.437,32.792,23.809,32.792,23.809l-35.652,3.717l-32.49-5.441L2053.144,1064.183z"/>
							</g>
						</g>
					</g>
					<g>
						<g>
							<g>
								<path style="fill:#2D0F28;" d="M2055.017,1044.783c0,0,17.254,20.499,42.395,18.657c0,0,5.334,31.005,23.364,31.339
									c18.03,0.334,12.331-42.456,12.331-42.456s-32.139-16.857-34.256-17.061c-2.118-0.204-37.403-5.748-37.403-5.748
									L2055.017,1044.783z"/>
							</g>
						</g>
					</g>
					<g>
						<g>
							<g>
								<g>
									<g>
										<path style="fill:#FBFDFA;" d="M2060.397,1118.464c0.278-0.078,18.152-1.92,18.152-1.92s-1.66,7.585-8.301,8.287
											C2063.606,1125.534,2060.397,1118.464,2060.397,1118.464z"/>
									</g>
								</g>
							</g>
						</g>
					</g>
				</g>
				<g>
					<g>
						<g>
							<path style="fill:#ED2B47;" d="M2208.102,1175.514c8.205,1.673,16.271,4.75,23.866,9.068
								c-0.039,0.093-0.077,0.185-0.116,0.27c-7.203,17.027-17.296,32.519-29.673,45.867c-0.37,0.394-0.74,0.787-1.11,1.172
								c-0.393,0.424-0.787,0.833-1.195,1.249c-28.702,29.688-68.954,48.149-113.526,48.149c-24.36,0-47.432-5.513-68.037-15.361
								c-3.855-1.843-7.626-3.84-11.297-5.984c-0.625-0.362-1.249-0.725-1.866-1.102c-1.673-1.003-3.323-2.036-4.958-3.1
								c-0.563-0.37-1.118-0.74-1.673-1.11c-11.374-7.627-21.7-16.695-30.722-26.936c-3.277-3.717-6.377-7.58-9.292-11.598
								c-6.323-8.714-11.79-18.099-16.248-28.023c7.804-5.205,23.118-9.076,40.585-11.937c13.556-2.221,28.409-3.84,42.065-4.997
								c14.227-1.219,27.151-1.936,35.942-2.344c7.279-0.332,11.721-0.447,11.721-0.447s17.852,0.085,41.039,0.671
								c10.465,0.262,22.024,0.632,33.521,1.126c0.039,0,0.062,0.008,0.077,0.008h0.008c8.806,0.385,17.566,0.856,25.779,1.419
								c12.152,0.84,23.087,1.889,31.138,3.216c0.64,0.1,1.257,0.208,1.851,0.316c0.069,0.008,0.139,0.023,0.2,0.039
								c0.486,0.085,0.956,0.169,1.411,0.262C2207.762,1175.437,2207.932,1175.475,2208.102,1175.514z"/>
						</g>
					</g>
				</g>
				<g>
					<g>
						<g>
							<path style="fill:#010103;" d="M2232.508,1183.287c-0.185,0.432-0.363,0.863-0.54,1.295c-0.039,0.093-0.077,0.185-0.116,0.27
								c-2.953-1.55-5.969-2.845-9.014-3.847c-5.29-1.735-11.767-3.293-19.409-4.65c-8.498-1.503-18.407-2.76-29.68-3.763
								c-0.463-0.046-0.81-0.455-0.771-0.925c0-0.031,0.008-0.061,0.015-0.092c0.085-0.425,0.478-0.725,0.91-0.679
								c11.497,1.026,21.599,2.322,30.236,3.871c0.625,0.108,1.241,0.224,1.843,0.339c0.069,0.008,0.139,0.023,0.2,0.039
								c0.656,0.116,1.296,0.247,1.92,0.37c5.853,1.164,10.95,2.46,15.268,3.879
								C2226.455,1180.411,2229.508,1181.714,2232.508,1183.287z"/>
						</g>
					</g>
				</g>
				<g>
					<g>
						<path style="fill:#FE9F73;" d="M2024.899,1171.137c0,0,60.086,59.897,122.318-0.981
							C2147.217,1170.156,2076.097,1162.16,2024.899,1171.137z"/>
					</g>
				</g>
			</g>
		</g>
		<g>
			<g>
				<path style="fill:#FFFFFF;" d="M2086.352,1281.47c-0.444,0-0.896-0.001-1.341-0.009c-6.499-0.048-13.063-0.488-19.444-1.309
					c-1.589-0.192-3.281-0.431-5.126-0.726c-41.109-6.546-77.857-28.389-103.468-61.508c-22.292-28.82-34.075-63.365-34.075-99.896
					c0-43.661,17.002-84.708,47.874-115.581c30.873-30.872,71.919-47.874,115.581-47.874c43.658,0,84.703,17.002,115.574,47.875
					c30.872,30.873,47.873,71.919,47.873,115.58c0,37.497-12.352,72.763-35.719,101.987
					c-26.573,33.238-64.321,54.566-106.291,60.056C2100.797,1280.997,2093.58,1281.47,2086.352,1281.47z M2086.352,965.624
					c-84.033,0-152.399,68.366-152.399,152.399c0,34.061,10.984,66.266,31.764,93.133c23.883,30.883,58.141,51.251,96.466,57.354
					c1.707,0.273,3.26,0.493,4.75,0.672c5.986,0.77,12.103,1.18,18.225,1.225c0.44,0.009,0.815,0.009,1.193,0.008
					c6.742,0,13.467-0.44,19.991-1.309c39.134-5.119,74.324-25.006,99.103-55.999c21.784-27.244,33.298-60.123,33.298-95.083
					C2238.743,1033.99,2170.381,965.624,2086.352,965.624z"/>
			</g>
		</g>
	</g>
	<g>
		<g>
			<g>
				<path style="fill:#7FC6A6;" d="M2364.009,781.39c0,35.115,13.527,67.068,35.651,90.936c0.313,0.333,0.627,0.666,0.94,0.993
					c0.333,0.359,0.666,0.706,1.012,1.058c24.311,25.147,58.407,40.784,96.161,40.784c20.634,0,40.177-4.67,57.63-13.011
					c16.382-7.838,30.922-18.909,42.79-32.385c2.776-3.148,5.402-6.421,7.871-9.824c16.022-22.058,25.474-49.197,25.474-78.551
					c0-73.875-59.89-133.764-133.765-133.764C2423.893,647.625,2364.009,707.515,2364.009,781.39z"/>
			</g>
			<g>
				<g>
					<g>
						<g>
							<g>
								<g>
									<path style="fill:#5B2750;" d="M2524.939,843.769c0,0,1.006,1.914,2.763,5.284c0.647,1.228,1.391,2.645,2.221,4.239
										c2.835,5.421,6.702,12.822,11.13,21.307c0.379,0.731,0.764,1.47,1.156,2.221c4.095,7.844,8.609,16.512,13.195,25.33
										c16.382-7.838,30.922-18.909,42.79-32.385c2.776-3.148,5.402-6.421,7.871-9.824c-1.672-1.626-3.475-3.005-5.422-4.108
										c-19.759-11.189-56.983-12.175-70.569-12.143C2526.84,843.697,2524.939,843.769,2524.939,843.769z"/>
								</g>
							</g>
						</g>
					</g>
				</g>
				<g>
					<g>
						<g>
							<g>
								<g>
									<path style="fill:#5B2750;" d="M2598.193,869.765c-6.284-9.112-14.056-15.415-23.652-16.748
										c-10.522-1.456-27.277-2.756-44.39-3.814c-0.81-0.053-1.633-0.098-2.449-0.151c-24.337-1.47-48.818-2.462-56.598-2.756
										c-1.639-0.065-2.534-0.098-2.534-0.098s-0.222,0.058-0.588,0.15c-2.116,0.549-9.112,2.299-6.349,1.019
										c-27.544,4.866-47.134,14.775-61.033,25.951c0.333,0.359,0.666,0.706,1.012,1.058
										c24.311,25.147,58.407,40.784,96.161,40.784c20.634,0,40.177-4.67,57.63-13.011
										C2571.785,894.312,2586.325,883.24,2598.193,869.765z"/>
								</g>
							</g>
						</g>
					</g>
				</g>
				<g>
					<g>
						<g>
							<g>
								<g>
									<g>
										<g>
											<path style="fill:#0D060E;" d="M2495.817,899.491c-1.091,0.113-2.2,0.209-3.332,0.289
												c-0.645,0.045-1.206-0.441-1.251-1.087c-0.045-0.644,0.421-1.2,1.087-1.251c48.559-3.409,57.575-38.957,57.644-39.314
												c0.119-0.624,0.717-1.059,1.347-0.95c0.628,0.106,1.06,0.678,0.969,1.308
												C2552.229,858.852,2543.267,894.582,2495.817,899.491z"/>
										</g>
									</g>
								</g>
							</g>
						</g>
					</g>
				</g>
				<g>
					<g>
						<g>
							<g>
								<g>
									<g>
										<g>
											<path style="fill:#0D060E;" d="M2468.197,844.898c-31.888,4.468-53.743,15.552-68.538,27.427
												c0.313,0.333,0.627,0.666,0.94,0.993c0.333,0.359,0.666,0.706,1.012,1.058c14.317-11.437,35.422-22.136,66.154-26.565
												c0.706-0.104,1.417-0.202,2.129-0.3c0.647-0.092,1.136-0.601,1.208-1.215c0.02-0.118,0.02-0.242,0.007-0.366
												c-0.104-0.771-0.816-1.313-1.587-1.215C2469.079,844.774,2468.635,844.833,2468.197,844.898z"/>
										</g>
									</g>
								</g>
							</g>
						</g>
					</g>
				</g>
				<g>
					<g>
						<g>
							<g>
								<g>
									<g>
										<g>
											<g>
												<g>
													<g>
														<path style="fill:#FE9F73;" d="M2456.977,740.446l-1.592,61.358c0,0-1.333,19.703,15.862,22.617l-3.905,26.233
															c-1.452,9.751,4.155,19.268,13.473,22.487c4.556,1.574,10.013,2.778,16.232,2.94
															c19.725,0.512,30.793-14.005,32.629-21.359c1.836-7.354-2.179-42.822-2.179-42.822l1.051-17.35l-0.499-67.345
															L2456.977,740.446z"/>
													</g>
												</g>
											</g>
										</g>
									</g>
								</g>
							</g>
						</g>
					</g>
					<g>
						<g>
							<g>
								<g>
									<g>
										<g>
											<g>
												<g>
													<g>
														<path style="fill:#F07162;" d="M2511.695,808.702c0,0-2.014,32.985-43.328,35.068l2.88-19.349
															C2471.247,824.421,2497.849,830.487,2511.695,808.702z"/>
													</g>
												</g>
											</g>
										</g>
									</g>
								</g>
							</g>
						</g>
					</g>
					<g>
						<g>
							<g>
								<g>
									<g>
										<g>
											<g>
												<g>
													<g>
														<path style="fill:#2D0F28;" d="M2503.765,773.863c0.205,0.005,0.412-0.066,0.575-0.215
															c0.335-0.305,0.36-0.825,0.054-1.161c-0.11-0.121-11.115-11.978-21.66-3.923c-0.361,0.275-0.43,0.791-0.155,1.152
															c0.275,0.362,0.791,0.431,1.152,0.154c9.345-7.136,19.039,3.277,19.446,3.724
															C2503.336,773.767,2503.55,773.857,2503.765,773.863z"/>
													</g>
												</g>
											</g>
										</g>
									</g>
								</g>
							</g>
						</g>
					</g>
					<g>
						<g>
							<g>
								<g>
									<g>
										<g>
											<g>
												<path style="fill:#2F0E1B;" d="M2532.314,765.974l-17.833,3.232l-3.292,3.238c0,0,2.307-29.697,5.799-35.456
													C2520.479,731.229,2532.314,765.974,2532.314,765.974z"/>
											</g>
										</g>
									</g>
								</g>
							</g>
						</g>
					</g>
					<g>
						<g>
							<g>
								<g>
									<g>
										<g>
											<g>
												<g>
													<g>
														<path style="fill:#2D0F28;" d="M2470.013,768.053c0.23,0.006,0.461-0.085,0.629-0.268
															c0.306-0.335,0.282-0.854-0.052-1.161c-0.324-0.296-7.99-7.204-13.057-3.082c-0.352,0.286-0.406,0.804-0.119,1.156
															c0.286,0.354,0.804,0.407,1.156,0.119c3.969-3.228,10.841,2.959,10.91,3.022
															C2469.633,767.977,2469.823,768.048,2470.013,768.053z"/>
													</g>
												</g>
											</g>
										</g>
									</g>
								</g>
							</g>
						</g>
					</g>
					<g>
						<g>
							<g>
								<g>
									<g>
										<g>
											<g>
												<g>
													<g>
														<path style="fill:#010103;" d="M2487.059,776.753c-0.036,1.362,1.04,2.495,2.402,2.53
															c1.362,0.035,2.494-1.04,2.529-2.402c0.036-1.362-1.04-2.494-2.401-2.53
															C2488.227,774.316,2487.094,775.392,2487.059,776.753z"/>
													</g>
												</g>
											</g>
										</g>
									</g>
								</g>
							</g>
						</g>
					</g>
					<g>
						<g>
							<g>
								<g>
									<g>
										<g>
											<g>
												<g>
													<g>
														<path style="fill:#010103;" d="M2460.914,773.608c-0.035,1.362,1.04,2.494,2.402,2.53
															c1.362,0.035,2.494-1.04,2.53-2.402c0.035-1.362-1.04-2.494-2.402-2.53
															C2462.082,771.171,2460.95,772.246,2460.914,773.608z"/>
													</g>
												</g>
											</g>
										</g>
									</g>
								</g>
							</g>
						</g>
					</g>
					<g>
						<g>
							<g>
								<g>
									<g>
										<g>
											<g>
												<g>
													<g>
														<path style="fill:#FE9F73;" d="M2507.445,776.426c-0.212,8.17,6.24,14.965,14.41,15.177
															c8.17,0.212,14.966-6.239,15.177-14.41c0.212-8.17-6.24-14.965-14.41-15.177
															C2514.452,761.804,2507.657,768.255,2507.445,776.426z"/>
													</g>
												</g>
											</g>
										</g>
									</g>
								</g>
							</g>
						</g>
					</g>
					<g>
						<g>
							<g>
								<g>
									<g>
										<g>
											<g>
												<g>
													<g>
														<path style="fill:#FB554B;" d="M2524.615,785.088c3.073,0.08,5.186-2.177,5.921-4.468
															c0.871-2.71,0.023-5.386-2.158-6.82c-3.223-2.119-6.227-0.891-7.775,0.071c0.682-1.663,1.715-2.859,3.081-3.565
															c2.956-1.529,6.541-0.267,6.577-0.254c0.213,0.078,0.449-0.033,0.526-0.247c0.077-0.213-0.033-0.448-0.246-0.526
															c-0.16-0.058-3.95-1.397-7.229,0.294c-1.894,0.976-3.21,2.757-3.914,5.292l-0.395,1.422l1.073-1.013
															c0.152-0.144,3.758-3.473,7.849-0.786c2.265,1.488,2.4,4.099,1.828,5.882c-0.595,1.851-2.289,3.97-5.115,3.897
															c-0.028-0.001-0.054-0.004-0.084-0.003c-0.224-0.006-0.412,0.169-0.421,0.395c-0.009,0.226,0.167,0.418,0.394,0.427
															C2524.557,785.086,2524.586,785.087,2524.615,785.088z"/>
													</g>
												</g>
											</g>
										</g>
									</g>
								</g>
							</g>
						</g>
					</g>
					<g>
						<g>
							<g>
								<g>
									<g>
										<g>
											<g>
												<g>
													<g>
														<path style="fill:#FB554B;" d="M2477.93,793.159c0.172,0.005,0.336-0.1,0.397-0.271
															c0.077-0.214-0.034-0.449-0.247-0.526l-8.167-2.938l3.105-19.319c0.036-0.224-0.116-0.435-0.34-0.471
															c-0.226-0.042-0.435,0.117-0.471,0.34l-3.214,19.993l8.809,3.168C2477.844,793.15,2477.887,793.158,2477.93,793.159z"
															/>
													</g>
												</g>
											</g>
										</g>
									</g>
								</g>
							</g>
						</g>
					</g>
					<g>
						<g>
							<g>
								<g>
									<g>
										<g>
											<g>
												<g>
													<g>
														<path style="fill:#FBFDFA;" d="M2484.103,801.329c-0.252-0.056-16.262-0.847-16.262-0.847s1.839,6.677,7.789,6.987
															C2481.58,807.779,2484.103,801.329,2484.103,801.329z"/>
													</g>
												</g>
											</g>
										</g>
									</g>
								</g>
							</g>
						</g>
					</g>
					<g>
						<g>
							<g>
								<g>
									<g>
										<g>
											<g>
												<path style="fill:#2F0E1B;" d="M2532.314,765.974c0,0,5.742-28.676-2.799-39.642
													c-8.542-10.966-58.672-31.069-64.947-25.859c-6.275,5.209-0.308,11.888-0.308,11.888s-20.155-7.046-25.224,10.858
													c-5.069,17.904,38.447,26.707,64.743,18.947C2503.778,742.165,2520.894,747.643,2532.314,765.974z"/>
											</g>
										</g>
									</g>
								</g>
							</g>
						</g>
					</g>
				</g>
			</g>
		</g>
		<g>
			<g>
				<path style="fill:#FFFFFF;" d="M2498.056,923.541c-0.376,0-0.759-0.001-1.136-0.007c-5.505-0.04-11.065-0.413-16.47-1.109
					c-1.346-0.162-2.779-0.365-4.342-0.615c-34.822-5.545-65.948-24.047-87.642-52.1c-18.882-24.412-28.863-53.673-28.863-84.617
					c0-36.983,14.402-71.751,40.552-97.902c26.15-26.15,60.919-40.552,97.902-40.552c36.98,0,71.747,14.402,97.896,40.552
					c26.15,26.151,40.551,60.919,40.551,97.901c0,31.761-10.462,61.633-30.256,86.388c-22.508,28.154-54.482,46.22-90.033,50.87
					C2510.292,923.14,2504.179,923.541,2498.056,923.541z M2498.056,656.005c-71.179,0-129.088,57.909-129.088,129.088
					c0,28.851,9.304,56.13,26.906,78.887c20.23,26.16,49.248,43.412,81.711,48.581c1.446,0.231,2.761,0.418,4.023,0.57
					c5.07,0.652,10.251,1,15.438,1.038c0.372,0.007,0.691,0.007,1.011,0.007c5.71,0,11.407-0.373,16.933-1.109
					c33.148-4.336,62.956-21.181,83.944-47.434c18.452-23.076,28.205-50.927,28.205-80.539
					C2627.138,713.914,2569.233,656.005,2498.056,656.005z"/>
			</g>
		</g>
	</g>
	<g>
		<path style="fill:#FFFFFF;" d="M1721.778,622.602l-4.4-7.889l38.462-21.452l4.4,7.889L1721.778,622.602z M1798.702,579.699
			l-4.4-7.889l38.462-21.452l4.4,7.889L1798.702,579.699z M1875.626,536.796l-4.4-7.889l38.462-21.452l4.4,7.889L1875.626,536.796z
			 M1952.549,493.892l-4.4-7.889l38.462-21.451l4.4,7.89L1952.549,493.892z"/>
	</g>
	<g>
		<path style="fill:#FFFFFF;" d="M2416.459,675.187l-23.575-31.674l7.247-5.394l23.575,31.674L2416.459,675.187z M2366.591,608.184
			l-26.294-35.329l7.247-5.393l26.294,35.329L2366.591,608.184z M2314.002,537.527l-26.294-35.328l7.247-5.394l26.294,35.328
			L2314.002,537.527z M2261.414,466.87l-26.294-35.328l7.247-5.394l26.294,35.328L2261.414,466.87z"/>
	</g>
	<g>
		<path style="fill:#FFFFFF;" d="M2234.134,1045.586l-5.865-6.872l33.5-28.587l5.865,6.872L2234.134,1045.586z M2301.135,988.413
			l-5.865-6.872l33.5-28.587l5.865,6.872L2301.135,988.413z M2368.137,931.24l-5.864-6.872l33.5-28.587l5.864,6.872L2368.137,931.24
			z"/>
	</g>
	<g>
		<path style="fill:#FFFFFF;" d="M2360.213,770.721l-22.38-3.319l1.325-8.936l22.38,3.319L2360.213,770.721z M2294.27,760.942
			l-43.563-6.461l1.326-8.936l43.563,6.461L2294.27,760.942z M2207.144,748.021l-43.563-6.46l1.325-8.936l43.563,6.46
			L2207.144,748.021z M2120.018,735.1l-43.563-6.461l1.325-8.936l43.563,6.46L2120.018,735.1z M2032.891,722.18l-43.563-6.46
			l1.325-8.936l43.563,6.461L2032.891,722.18z M1945.765,709.259l-43.563-6.46l1.325-8.936l43.563,6.46L1945.765,709.259z
			 M1858.639,696.339l-43.563-6.461l1.326-8.936l43.563,6.461L1858.639,696.339z M1771.512,683.418l-43.563-6.461l1.326-8.936
			l43.563,6.461L1771.512,683.418z"/>
	</g>
	<g>
		<g>
			<g>
				<path style="fill:#52B6C6;" d="M2741.995,1231.401c0,30.151-11.615,57.588-30.611,78.081c-0.269,0.286-0.538,0.572-0.808,0.852
					c-0.286,0.309-0.572,0.606-0.869,0.909c-20.875,21.593-50.151,35.019-82.568,35.019c-17.717,0-34.498-4.01-49.484-11.172
					c-14.066-6.73-26.551-16.237-36.741-27.807c-2.384-2.703-4.638-5.513-6.758-8.435c-13.758-18.94-21.873-42.243-21.873-67.448
					c0-63.432,51.424-114.856,114.856-114.856C2690.576,1116.545,2741.995,1167.969,2741.995,1231.401z"/>
			</g>
			<g>
				<g>
					<g>
						<g>
							<g>
								<path style="fill:#DCF4FF;" d="M2603.813,1284.962c0,0-0.864,1.643-2.372,4.537c-0.555,1.054-1.195,2.271-1.907,3.64
									c-2.435,4.655-5.755,11.009-9.557,18.295c-0.325,0.628-0.656,1.262-0.993,1.907c-3.516,6.736-7.392,14.178-11.329,21.75
									c-14.066-6.73-26.551-16.237-36.741-27.807c-2.384-2.703-4.638-5.513-6.758-8.435c1.436-1.397,2.984-2.58,4.655-3.528
									c16.966-9.607,48.928-10.454,60.594-10.426C2602.181,1284.901,2603.813,1284.962,2603.813,1284.962z"/>
							</g>
						</g>
					</g>
				</g>
			</g>
			<g>
				<g>
					<g>
						<g>
							<g>
								<path style="fill:#DCF4FF;" d="M2540.914,1307.284c5.396-7.824,12.069-13.236,20.308-14.38
									c9.035-1.251,23.421-2.367,38.115-3.276c0.696-0.045,1.402-0.084,2.103-0.129c20.897-1.262,41.918-2.114,48.598-2.367
									c1.408-0.056,2.176-0.084,2.176-0.084s0.191,0.051,0.505,0.129c1.817,0.471,7.824,1.974,5.452,0.875
									c23.651,4.178,40.471,12.686,52.406,22.282c-0.286,0.309-0.572,0.606-0.869,0.909
									c-20.875,21.593-50.151,35.019-82.568,35.019c-17.717,0-34.498-4.01-49.484-11.172
									C2563.588,1328.361,2551.104,1318.854,2540.914,1307.284z"/>
							</g>
						</g>
					</g>
				</g>
			</g>
			<g>
				<g>
					<g>
						<g>
							<g>
								<g>
									<g>
										<path style="fill:#0D060E;" d="M2628.819,1332.808c0.937,0.097,1.889,0.18,2.861,0.248
											c0.554,0.039,1.035-0.379,1.074-0.934c0.039-0.553-0.361-1.03-0.934-1.074c-41.695-2.927-49.437-33.45-49.496-33.757
											c-0.103-0.536-0.616-0.91-1.157-0.816c-0.539,0.091-0.91,0.582-0.832,1.123
											C2580.38,1297.914,2588.076,1328.593,2628.819,1332.808z"/>
									</g>
								</g>
							</g>
						</g>
					</g>
				</g>
			</g>
			<g>
				<g>
					<g>
						<g>
							<g>
								<g>
									<g>
										<path style="fill:#0D060E;" d="M2652.534,1285.933c27.38,3.836,46.146,13.354,58.85,23.55
											c-0.269,0.286-0.538,0.572-0.808,0.852c-0.286,0.309-0.572,0.606-0.869,0.909c-12.294-9.82-30.415-19.007-56.803-22.81
											c-0.606-0.09-1.217-0.174-1.828-0.258c-0.555-0.078-0.976-0.516-1.037-1.043c-0.017-0.101-0.017-0.207-0.006-0.314
											c0.09-0.662,0.701-1.128,1.363-1.043C2651.777,1285.826,2652.158,1285.876,2652.534,1285.933z"/>
									</g>
								</g>
							</g>
						</g>
					</g>
				</g>
			</g>
			<g>
				<g>
					<g>
						<g>
							<g>
								<g>
									<g>
										<g>
											<g>
												<path style="fill:#FE9F73;" d="M2626.406,1316.655L2626.406,1316.655c-15.319,0.18-27.669-16.892-27.081-37.436
													l1.528-29.323l48.373-0.247l2.268,29.784C2652.915,1300.328,2642.034,1316.472,2626.406,1316.655z"/>
											</g>
										</g>
									</g>
								</g>
							</g>
						</g>
						<g>
							<g>
								<g>
									<g>
										<g>
											<g>
												<path style="fill:#F07162;" d="M2600.269,1270.304c8.663,21.01,46.422,19.094,50.249-1.65l-1.292-19.005l-48.373,0.247
													L2600.269,1270.304z"/>
											</g>
										</g>
									</g>
								</g>
							</g>
						</g>
						<g>
							<g>
								<g>
									<g>
										<g>
											<g>
												<g>
													<g>
														<path style="fill:#FE9F73;" d="M2654.282,1218.483c0.038,7.351,6.027,13.28,13.379,13.242
															c7.351-0.038,13.28-6.027,13.242-13.378c-0.038-7.351-6.027-13.28-13.378-13.242
															C2660.173,1205.142,2654.244,1211.131,2654.282,1218.483z"/>
													</g>
												</g>
											</g>
										</g>
									</g>
								</g>
							</g>
							<g>
								<g>
									<g>
										<g>
											<g>
												<g>
													<g>
														<path style="fill:#F07162;" d="M2668.619,1226.623c2.794-0.014,4.649-2.122,5.253-4.223
															c0.714-2.485-0.133-4.893-2.156-6.134c-2.881-1.768-5.487-0.712-6.902,0.187c0.565-1.42,1.432-2.46,2.587-3.102
															c2.6-1.444,5.823-0.415,5.856-0.404c0.225,0.073,0.465-0.05,0.538-0.273c0.073-0.224-0.049-0.464-0.272-0.538
															c-0.146-0.048-3.612-1.155-6.535,0.47c-1.689,0.938-2.832,2.588-3.398,4.903l-0.363,1.484l1.08-1.083
															c0.131-0.132,3.253-3.196,6.965-0.917c2.051,1.258,2.242,3.573,1.782,5.173c-0.482,1.678-1.948,3.623-4.505,3.606
															c-0.231-0.005-0.427,0.186-0.43,0.423c-0.002,0.236,0.187,0.428,0.422,0.43
															C2668.566,1226.622,2668.593,1226.623,2668.619,1226.623z"/>
													</g>
												</g>
											</g>
										</g>
									</g>
								</g>
							</g>
						</g>
						<g>
							<path style="fill:#FE9F73;" d="M2664.087,1209.146c5.608-71.31-105.555-101.062-77.899,22.694
								C2600.416,1285.338,2666.608,1278.684,2664.087,1209.146z"/>
						</g>
						<g>
							<g>
								<g>
									<g>
										<g>
											<g>
												<g>
													<g>
														<path style="fill:#FE9F73;" d="M2591.675,1218.803c0.038,7.351-5.891,13.341-13.242,13.378
															c-7.351,0.038-13.341-5.891-13.379-13.242c-0.038-7.351,5.891-13.341,13.242-13.378
															C2585.648,1205.523,2591.637,1211.452,2591.675,1218.803z"/>
													</g>
												</g>
											</g>
										</g>
									</g>
								</g>
							</g>
							<g>
								<g>
									<g>
										<g>
											<g>
												<g>
													<g>
														<path style="fill:#F07162;" d="M2577.422,1227.09c-2.794,0.014-4.671-2.075-5.295-4.169
															c-0.739-2.478,0.082-4.894,2.093-6.157c2.863-1.797,5.479-0.768,6.904,0.116c-0.58-1.414-1.457-2.446-2.619-3.076
															c-2.615-1.418-5.827-0.356-5.859-0.345c-0.224,0.075-0.465-0.045-0.541-0.267c-0.076-0.222,0.044-0.465,0.267-0.541
															c0.146-0.05,3.601-1.192,6.54,0.403c1.698,0.921,2.859,2.558,3.448,4.868l0.378,1.481l-1.091-1.071
															c-0.132-0.131-3.286-3.162-6.974-0.846c-2.038,1.279-2.205,3.596-1.729,5.191c0.499,1.673,1.985,3.603,4.542,3.56
															c0.231-0.007,0.43,0.182,0.434,0.418c0.005,0.236-0.183,0.43-0.418,0.434
															C2577.475,1227.088,2577.448,1227.089,2577.422,1227.09z"/>
													</g>
												</g>
											</g>
										</g>
									</g>
								</g>
							</g>
						</g>
						<g>
							<g>
								<g>
									<g>
										<g>
											<g>
												<g>
													<path style="fill:#010103;" d="M2611.235,1210.23c0.008,1.501-1.203,2.724-2.703,2.731
														c-1.501,0.007-2.724-1.203-2.731-2.704c-0.008-1.501,1.203-2.724,2.704-2.731
														C2610.004,1207.519,2611.227,1208.729,2611.235,1210.23z"/>
												</g>
											</g>
										</g>
									</g>
								</g>
							</g>
						</g>
						<g>
							<g>
								<g>
									<g>
										<g>
											<g>
												<g>
													<path style="fill:#010103;" d="M2639.272,1210.616c0.008,1.501,1.231,2.711,2.731,2.703
														c1.5-0.008,2.711-1.23,2.703-2.731c-0.008-1.501-1.23-2.711-2.731-2.703
														C2640.474,1207.893,2639.264,1209.116,2639.272,1210.616z"/>
												</g>
											</g>
										</g>
									</g>
								</g>
							</g>
						</g>
						<g>
							<g>
								<g>
									<g>
										<g>
											<g>
												<g>
													<path style="fill:#2D0F28;" d="M2653.181,1205.833c-0.505,0.003-1.015-0.167-1.433-0.518
														c-6.388-5.364-15.591-2.324-15.683-2.292c-1.155,0.391-2.412-0.223-2.806-1.377c-0.396-1.154,0.214-2.409,1.367-2.807
														c0.471-0.165,11.636-3.908,19.967,3.088c0.935,0.786,1.057,2.181,0.272,3.117
														C2654.43,1205.561,2653.809,1205.83,2653.181,1205.833z"/>
												</g>
											</g>
										</g>
									</g>
								</g>
							</g>
						</g>
						<g>
							<g>
								<g>
									<g>
										<g>
											<g>
												<g>
													<path style="fill:#2D0F28;" d="M2597.777,1205.905c-0.645,0.003-1.287-0.274-1.726-0.813
														c-0.773-0.947-0.632-2.341,0.315-3.112c8.429-6.877,19.538-2.977,20.008-2.809c1.148,0.415,1.743,1.684,1.329,2.833
														c-0.416,1.147-1.685,1.742-2.827,1.33l0,0c-0.092-0.033-9.25-3.2-15.712,2.073
														C2598.756,1205.739,2598.265,1205.902,2597.777,1205.905z"/>
												</g>
											</g>
										</g>
									</g>
								</g>
							</g>
						</g>
						<g>
							<g>
								<g>
									<g>
										<g>
											<g>
												<g>
													<path style="fill:#FBFDFA;" d="M2617.571,1238.984c0.256-0.05,16.464-0.488,16.464-0.488s-2.011,6.711-8.035,6.89
														C2619.976,1245.564,2617.571,1238.984,2617.571,1238.984z"/>
												</g>
											</g>
										</g>
									</g>
								</g>
							</g>
						</g>
					</g>
				</g>
				<g>
					<g>
						<g>
							<g>
								<path style="fill:#2D0F28;" d="M2664.278,1155.978c-9.255-16.828-70.642-24.657-83.897-0.595
									c-2.853,5.178-2.399,47.308-0.243,50.776c2.156,3.468,6.975,4.907,6.975,4.907s0.391-34.234,2.401-38.735
									c2.011-4.501,13.715-13.657,22.398-6.104c4.541,3.95,7.832,4.541,9.949,4.214c2.035,0.625,5.582,0.498,10.778-3.933
									c8.758-7.467,20.37,1.806,22.336,6.327c1.966,4.521,2.015,38.757,2.015,38.757s4.833-1.391,7.024-4.837
									C2666.205,1203.307,2667.127,1161.158,2664.278,1155.978z"/>
							</g>
						</g>
					</g>
				</g>
				<g>
					<g>
						<g>
							<g>
								<g>
									<g>
										<g>
											<path style="fill:#F07162;" d="M2631.227,1226.472c0.171-0.014,0.322-0.135,0.365-0.311
												c0.054-0.22-0.081-0.441-0.3-0.495l-8.391-2.05l1.045-19.445c0.012-0.225-0.161-0.418-0.386-0.43
												c-0.228-0.018-0.419,0.161-0.43,0.386l-1.082,20.123l9.05,2.21C2631.141,1226.472,2631.185,1226.475,2631.227,1226.472z"
												/>
										</g>
									</g>
								</g>
							</g>
						</g>
					</g>
				</g>
				<g>
					<path style="fill:#2D0F28;" d="M2644.471,1239.674c-0.099-5.215-3.524-9.884-8.558-11.252
						c-4.757-1.292-10.549-1.124-15.591-0.699c-21.169-0.987-13.611,41.007,1.589,42.898
						C2644.896,1273.707,2644.757,1254.77,2644.471,1239.674z M2614.326,1236.573c1.535-3.064,14.62-4.027,21.293-1.794
						c1.934,0.647,3.303,2.401,3.422,4.436c0.466,7.979-4.55,23.779-10.69,9.422l-4.174,0.137
						C2618.537,1268.134,2610.995,1241.492,2614.326,1236.573z"/>
				</g>
			</g>
		</g>
		<g>
			<g>
				<path style="fill:#FFFFFF;" d="M2625.747,1353.4c-0.331,0-0.669,0-1.001-0.006c-4.851-0.035-9.75-0.364-14.513-0.977
					c-1.186-0.143-2.449-0.321-3.826-0.542c-30.683-4.885-58.111-21.189-77.226-45.908c-16.638-21.511-25.433-47.294-25.433-74.56
					c0-32.588,12.69-63.224,35.732-86.267c23.042-23.042,53.679-35.732,86.267-35.732c32.585,0,63.22,12.69,86.262,35.733
					c23.042,23.043,35.731,53.679,35.731,86.266c0,27.987-9.219,54.309-26.66,76.121c-19.833,24.808-48.008,40.727-79.333,44.824
					C2636.529,1353.047,2631.142,1353.4,2625.747,1353.4z M2625.747,1117.66c-62.72,0-113.747,51.027-113.747,113.747
					c0,25.423,8.198,49.459,23.708,69.512c17.825,23.051,43.395,38.253,72,42.807c1.274,0.204,2.433,0.368,3.545,0.502
					c4.468,0.575,9.033,0.881,13.603,0.914c0.328,0.006,0.609,0.006,0.891,0.006c5.032,0,10.052-0.329,14.921-0.977
					c29.208-3.821,55.474-18.664,73.968-41.797c16.259-20.334,24.853-44.874,24.853-70.968
					C2739.489,1168.687,2688.465,1117.66,2625.747,1117.66z"/>
			</g>
		</g>
	</g>
	<g>
		<path style="fill:#FFFFFF;" d="M2503.571,1235.92l-32.323-1.271l0.355-9.027l32.323,1.271L2503.571,1235.92z M2427.243,1232.917
			l-44.007-1.731l0.355-9.027l44.007,1.731L2427.243,1232.917z M2339.231,1229.454l-44.005-1.731l0.355-9.027l44.005,1.731
			L2339.231,1229.454z M2251.221,1225.992l-44.005-1.731l0.355-9.027l44.005,1.731L2251.221,1225.992z"/>
	</g>
	<g>
		<path style="fill:#FFFFFF;" d="M2601.363,1113.178l-7.579-39.537l8.873-1.7l7.579,39.537L2601.363,1113.178z M2585.493,1030.389
			l-8.292-43.252l8.873-1.701l8.292,43.252L2585.493,1030.389z M2568.909,943.885l-8.292-43.252l8.873-1.7l8.292,43.252
			L2568.909,943.885z"/>
	</g>
	<g>
		<g>
			<g>
				<g>
					<path style="fill:#7FC6A6;" d="M831.396,1820.205c-12.371-12.371-108.867-185.569-175.672-96.496
						c0,0-109.176-251.136-247.425-201.961c0,0-88.145,51.031-24.124,178.146c0,0-213.404-13.608-210.621,120.311H831.396z"/>
				</g>
			</g>
		</g>
		<g>
			<g>
				<g>
					<path style="fill:#7FC6A6;" d="M512.108,1569.173c0.426,0,0.847-0.188,1.13-0.549c0.491-0.624,0.383-1.527-0.24-2.017
						c-1.428-1.123-35.313-27.548-66.285-31.264c-0.793-0.095-1.503,0.468-1.598,1.255c-0.094,0.788,0.468,1.503,1.256,1.598
						c30.164,3.619,64.507,30.4,64.85,30.669C511.484,1569.073,511.798,1569.173,512.108,1569.173z"/>
				</g>
			</g>
		</g>
		<g>
			<g>
				<g>
					<path style="fill:#7FC6A6;" d="M512.108,1585.836c0.418,0,0.834-0.182,1.117-0.532c0.5-0.616,0.405-1.521-0.211-2.021
						c-0.231-0.188-23.453-18.839-53.08-27.48c-0.758-0.221-1.56,0.215-1.782,0.977c-0.222,0.762,0.216,1.56,0.978,1.782
						c29.053,8.474,51.848,26.77,52.076,26.954C511.47,1585.731,511.79,1585.836,512.108,1585.836z"/>
				</g>
			</g>
		</g>
	</g>
	<g>
		<rect x="122.612" y="1818.898" style="fill:#223749;" width="2682.019" height="6.244"/>
	</g>
	<g>
		<g>
			
				<ellipse transform="matrix(0.7071 -0.7071 0.7071 0.7071 -570.1136 1594.8732)" style="fill:#FFFFFF;" cx="1640.125" cy="1485.625" rx="97.854" ry="97.854"/>
		</g>
		<g>
			<g>
				<path style="fill:#5AB3BF;" d="M1621.944,1535.475l-36.906-51.323c-1.747-2.429-1.194-5.815,1.236-7.562
					c2.43-1.747,5.815-1.193,7.562,1.236l28.505,39.641l71.261-90.402c1.852-2.351,5.26-2.753,7.609-0.901
					c2.35,1.853,2.754,5.259,0.901,7.609L1621.944,1535.475z"/>
			</g>
		</g>
	</g>
</g>
</svg>
